<?xml version="1.0" encoding="UTF-8" standalone="no"?>
<!-- Created with Inkscape (http://www.inkscape.org/) -->

<svg
   version="1.1"
   id="svg17151"
   width="634.96802"
   height="426.608"
   viewBox="0 0 634.96802 426.608"
   sodipodi:docname="frustrum.pdf"
   xmlns:inkscape="http://www.inkscape.org/namespaces/inkscape"
   xmlns:sodipodi="http://sodipodi.sourceforge.net/DTD/sodipodi-0.dtd"
   xmlns="http://www.w3.org/2000/svg"
   xmlns:svg="http://www.w3.org/2000/svg">
  <defs
     id="defs17155">
    <clipPath
       clipPathUnits="userSpaceOnUse"
       id="clipPath17167">
      <path
         d="M 0,319.956 H 476.226 V 0 H 0 Z"
         id="path17165" />
    </clipPath>
    <clipPath
       clipPathUnits="userSpaceOnUse"
       id="clipPath17175">
      <path
         d="M 305.5,277.813 H 476.226 V 0 H 305.5 Z"
         id="path17173" />
    </clipPath>
    <clipPath
       clipPathUnits="userSpaceOnUse"
       id="clipPath17219">
      <path
         d="m 54.1968,176.718 h 37.271 v -54.096 h -37.271 z"
         id="path17217" />
    </clipPath>
    <clipPath
       clipPathUnits="userSpaceOnUse"
       id="clipPath17271">
      <path
         d="M 0,319.956 H 476.226 V 0 H 0 Z"
         id="path17269" />
    </clipPath>
    <clipPath
       clipPathUnits="userSpaceOnUse"
       id="clipPath17291">
      <path
         d="M 0,319.956 H 476.226 V 0 H 0 Z"
         id="path17289" />
    </clipPath>
    <clipPath
       clipPathUnits="userSpaceOnUse"
       id="clipPath17307">
      <path
         d="M 0,319.956 H 476.226 V 0 H 0 Z"
         id="path17305" />
    </clipPath>
    <clipPath
       clipPathUnits="userSpaceOnUse"
       id="clipPath17327">
      <path
         d="M 0,319.956 H 476.226 V 0 H 0 Z"
         id="path17325" />
    </clipPath>
    <clipPath
       clipPathUnits="userSpaceOnUse"
       id="clipPath17339">
      <path
         d="m 314.376,154.524 h 42.319 v -42.015 h -42.319 z"
         id="path17337" />
    </clipPath>
    <clipPath
       clipPathUnits="userSpaceOnUse"
       id="clipPath17371">
      <path
         d="m 268.694,319.956 h 52.722 v -47.83 h -52.722 z"
         id="path17369" />
    </clipPath>
    <clipPath
       clipPathUnits="userSpaceOnUse"
       id="clipPath17375">
      <path
         d="m 277.063,284.812 h 26.67 v -11.725 h -26.67 z"
         id="path17373" />
    </clipPath>
    <clipPath
       clipPathUnits="userSpaceOnUse"
       id="clipPath17379">
      <path
         d="m 294.432,274.914 -17.369,9.898 c 0.659,-0.376 1.351,-0.698 2.07,-0.961 0.72,-0.264 1.467,-0.47 2.237,-0.613 0.77,-0.143 1.563,-0.224 2.375,-0.239 0.811,-0.015 1.641,0.036 2.485,0.158 l 17.503,-9.899 c -0.858,-0.127 -1.7,-0.182 -2.524,-0.17 -0.824,0.013 -1.628,0.093 -2.41,0.236 -0.781,0.144 -1.539,0.351 -2.268,0.617 -0.73,0.266 -1.431,0.592 -2.099,0.973"
         id="path17377" />
    </clipPath>
    <clipPath
       clipPathUnits="userSpaceOnUse"
       id="clipPath17383">
      <path
         d="m 277.063,284.812 h 26.67 v -11.725 h -26.67 z"
         id="path17381" />
    </clipPath>
    <clipPath
       clipPathUnits="userSpaceOnUse"
       id="clipPath17387">
      <path
         d="m 286.23,317.448 h 34.311 v -44.19 H 286.23 Z"
         id="path17385" />
    </clipPath>
    <clipPath
       clipPathUnits="userSpaceOnUse"
       id="clipPath17391">
      <path
         d="m 294.758,317.448 c 5.916,-3.068 11.83,-6.136 17.746,-9.204 1.217,-0.631 2.33,-1.439 3.316,-2.4 0.984,-0.959 1.842,-2.07 2.545,-3.309 0.702,-1.237 1.252,-2.601 1.623,-4.069 0.37,-1.466 0.563,-3.034 0.552,-4.681 -0.016,-2.496 -0.498,-4.941 -1.356,-7.224 -0.857,-2.284 -2.09,-4.408 -3.608,-6.264 -1.519,-1.856 -3.324,-3.443 -5.326,-4.653 -2.003,-1.211 -4.207,-2.043 -6.517,-2.386 l -17.503,9.899 c 2.275,0.328 4.442,1.137 6.413,2.319 1.969,1.18 3.742,2.732 5.232,4.548 1.49,1.815 2.698,3.895 3.535,6.132 0.837,2.238 1.304,4.635 1.312,7.083 0.005,1.616 -0.189,3.156 -0.559,4.594 -0.371,1.441 -0.916,2.781 -1.613,3.997 -0.697,1.217 -1.545,2.31 -2.517,3.254 -0.974,0.945 -2.075,1.741 -3.275,2.364"
         id="path17389" />
    </clipPath>
    <clipPath
       clipPathUnits="userSpaceOnUse"
       id="clipPath17395">
      <path
         d="m 286.23,317.448 h 34.311 v -44.19 H 286.23 Z"
         id="path17393" />
    </clipPath>
    <clipPath
       clipPathUnits="userSpaceOnUse"
       id="clipPath17399">
      <path
         d="m 286.24,319.956 h 26.703 V 309.139 H 286.24 Z"
         id="path17397" />
    </clipPath>
    <clipPath
       clipPathUnits="userSpaceOnUse"
       id="clipPath17403">
      <path
         d="m 295.187,318.324 c 5.919,-3.061 11.837,-6.123 17.756,-9.185 -0.661,0.342 -1.351,0.634 -2.066,0.873 -0.714,0.239 -1.455,0.425 -2.215,0.554 -0.762,0.129 -1.545,0.201 -2.346,0.212 -0.801,0.012 -1.619,-0.037 -2.452,-0.151 l -17.624,9.185 c 0.819,0.109 1.626,0.155 2.415,0.141 0.788,-0.014 1.559,-0.087 2.31,-0.216 0.75,-0.129 1.481,-0.313 2.186,-0.55 0.704,-0.236 1.385,-0.525 2.036,-0.863"
         id="path17401" />
    </clipPath>
    <clipPath
       clipPathUnits="userSpaceOnUse"
       id="clipPath17407">
      <path
         d="m 286.24,319.955 h 26.703 V 309.139 H 286.24 Z"
         id="path17405" />
    </clipPath>
    <clipPath
       clipPathUnits="userSpaceOnUse"
       id="clipPath17411">
      <path
         d="m 268.694,319.812 h 35.17 v -45.755 h -35.17 z"
         id="path17409" />
    </clipPath>
    <clipPath
       clipPathUnits="userSpaceOnUse"
       id="clipPath17415">
      <path
         d="m 293.922,274.057 c -5.786,3.305 -11.572,6.61 -17.358,9.916 -1.178,0.673 -2.256,1.508 -3.212,2.486 -0.958,0.979 -1.792,2.099 -2.48,3.34 -0.689,1.242 -1.231,2.604 -1.602,4.064 -0.371,1.462 -0.571,3.022 -0.576,4.658 -0.008,2.604 0.48,5.158 1.368,7.543 0.888,2.387 2.177,4.604 3.769,6.535 1.591,1.93 3.487,3.574 5.588,4.815 2.101,1.24 4.406,2.077 6.821,2.398 l 17.624,-9.185 c -2.452,-0.335 -4.796,-1.196 -6.932,-2.467 -2.139,-1.272 -4.068,-2.954 -5.69,-4.927 -1.624,-1.974 -2.94,-4.239 -3.849,-6.675 -0.909,-2.436 -1.413,-5.041 -1.413,-7.697 -0.001,-1.668 0.197,-3.257 0.569,-4.746 0.372,-1.488 0.918,-2.875 1.614,-4.138 0.694,-1.263 1.538,-2.403 2.506,-3.397 0.968,-0.993 2.06,-1.842 3.253,-2.523"
         id="path17413" />
    </clipPath>
    <clipPath
       clipPathUnits="userSpaceOnUse"
       id="clipPath17419">
      <path
         d="m 268.694,319.812 h 35.17 v -45.755 h -35.17 z"
         id="path17417" />
    </clipPath>
  </defs>
  <sodipodi:namedview
     id="namedview17153"
     pagecolor="#ffffff"
     bordercolor="#000000"
     borderopacity="0.25"
     inkscape:showpageshadow="2"
     inkscape:pageopacity="0.0"
     inkscape:pagecheckerboard="0"
     inkscape:deskcolor="#d1d1d1"
     showgrid="false"
     inkscape:lockguides="true" />
  <g
     id="g17159"
     inkscape:groupmode="layer"
     inkscape:label="Page 1"
     transform="matrix(1.3333333,0,0,-1.3333333,0,426.608)">
    <g
       id="g17161">
      <g
         id="g17163"
         clip-path="url(#clipPath17167)">
        <g
           id="g17169">
          <g
             id="g17171" />
          <g
             id="g17211">
            <g
               clip-path="url(#clipPath17175)"
               id="g17209">
              <g
                 transform="translate(473.0962,103.335)"
                 id="g17179">
                <path
                   d="M 0,0 -1.626,0.261 1.04,173.404 2.72,173.228 Z"
                   style="fill:#eeeeee;fill-opacity:1;fill-rule:nonzero;stroke:none"
                   id="path17177" />
              </g>
              <g
                 transform="translate(311.0776,1.3643)"
                 id="g17183">
                <path
                   d="m 0,0 -1.857,0.377 162.25,101.854 1.626,-0.26 z"
                   style="fill:#9f9f9f;fill-opacity:1;fill-rule:nonzero;stroke:none"
                   id="path17181" />
              </g>
              <g
                 transform="translate(308.0298,207.5244)"
                 id="g17187">
                <path
                   d="m 0,0 -1.929,0.259 168.035,68.956 1.68,-0.177 z"
                   style="fill:#dedede;fill-opacity:1;fill-rule:nonzero;stroke:none"
                   id="path17185" />
              </g>
              <g
                 transform="translate(311.0776,1.3633)"
                 id="g17191">
                <path
                   d="m 0,0 -1.857,0.378 -3.12,206.042 1.929,-0.259 z"
                   style="fill:#f7f7f7;fill-opacity:1;fill-rule:nonzero;stroke:none"
                   id="path17189" />
              </g>
              <g
                 transform="translate(473.0962,103.335)"
                 id="g17195">
                <path
                   d="m 0,0 2.72,173.228 -167.786,-69.039 3.047,-206.16 L 0,0 M -165.666,105.042 3.13,174.302 0.371,-0.612 -162.563,-103.335 Z"
                   style="fill:#adadad;fill-opacity:1;fill-rule:nonzero;stroke:none"
                   id="path17193" />
              </g>
              <g
                 transform="translate(475.8159,276.5625)"
                 id="g17199">
                <path
                   d="m 0,0 -2.72,-173.228 -162.018,-101.971 -3.048,206.161 z"
                   style="fill:#e7e7e7;fill-opacity:1;fill-rule:nonzero;stroke:none"
                   id="path17197" />
              </g>
              <g
                 transform="translate(310.5337)"
                 id="g17203">
                <path
                   d="m 0,0 -1.858,0.379 -3.175,208.257 1.929,-0.259 z"
                   style="fill:#e5e5e5;fill-opacity:1;fill-rule:nonzero;stroke:none"
                   id="path17201" />
              </g>
              <g
                 transform="translate(307.4302,208.3774)"
                 id="g17207">
                <path
                   d="m 0,0 -1.93,0.259 169.046,69.177 1.68,-0.177 z"
                   style="fill:#8f8f8f;fill-opacity:1;fill-rule:nonzero;stroke:none"
                   id="path17205" />
              </g>
            </g>
          </g>
        </g>
        <g
           id="g17213">
          <g
             id="g17215" />
          <g
             id="g17255">
            <g
               clip-path="url(#clipPath17219)"
               id="g17253">
              <g
                 transform="translate(90.8433,142.4443)"
                 id="g17223">
                <path
                   d="M 0,0 -1.735,0.262 -1.577,33.1 0.169,32.855 Z"
                   style="fill:#aeaeae;fill-opacity:1;fill-rule:nonzero;stroke:none"
                   id="path17221" />
              </g>
              <g
                 transform="translate(56.5264,123.8564)"
                 id="g17227">
                <path
                   d="M 0,0 -1.785,0.283 32.582,18.85 34.317,18.588 Z"
                   style="fill:#b6b6b6;fill-opacity:1;fill-rule:nonzero;stroke:none"
                   id="path17225" />
              </g>
              <g
                 transform="translate(56.4849,157.9351)"
                 id="g17231">
                <path
                   d="m 0,0 -1.797,0.265 34.578,17.344 1.746,-0.244 z"
                   style="fill:#f8f8f8;fill-opacity:1;fill-rule:nonzero;stroke:none"
                   id="path17229" />
              </g>
              <g
                 transform="translate(56.5264,123.8564)"
                 id="g17235">
                <path
                   d="m 0,0 -1.785,0.283 -0.053,34.061 1.796,-0.265 z"
                   style="fill:#f7f7f7;fill-opacity:1;fill-rule:nonzero;stroke:none"
                   id="path17233" />
              </g>
              <g
                 transform="translate(90.8433,142.4443)"
                 id="g17239">
                <path
                   d="M 0,0 0.169,32.855 -34.358,15.491 -34.317,-18.588 0,0 M -34.849,16.229 0.625,34.03 0.443,-0.693 -34.801,-19.822 Z"
                   style="fill:#cecece;fill-opacity:1;fill-rule:nonzero;stroke:none"
                   id="path17237" />
              </g>
              <g
                 transform="translate(91.0122,175.2998)"
                 id="g17243">
                <path
                   d="m 0,0 -0.169,-32.855 -34.317,-18.588 -0.041,34.078 z"
                   style="fill:#fafafa;fill-opacity:1;fill-rule:nonzero;stroke:none"
                   id="path17241" />
              </g>
              <g
                 transform="translate(56.042,122.6221)"
                 id="g17247">
                <path
                   d="m 0,0 -1.786,0.284 -0.059,36.032 1.798,-0.264 z"
                   style="fill:#acacac;fill-opacity:1;fill-rule:nonzero;stroke:none"
                   id="path17245" />
              </g>
              <g
                 transform="translate(55.9946,158.6738)"
                 id="g17251">
                <path
                   d="M 0,0 -1.798,0.265 33.728,18.044 35.473,17.8 Z"
                   style="fill:#b3b3b3;fill-opacity:1;fill-rule:nonzero;stroke:none"
                   id="path17249" />
              </g>
            </g>
          </g>
        </g>
      </g>
    </g>
    <g
       id="g17257"
       transform="translate(306.0913,208.3936)">
      <path
         d="M 0,0 -1.474,-0.281"
         style="fill:none;stroke:#000000;stroke-width:1;stroke-linecap:butt;stroke-linejoin:miter;stroke-miterlimit:10;stroke-dasharray:none;stroke-opacity:1"
         id="path17259" />
    </g>
    <g
       id="g17261"
       transform="translate(301.689,207.5532)">
      <path
         d="M 0,0 -297.327,-56.765"
         style="fill:none;stroke:#000000;stroke-width:1;stroke-linecap:butt;stroke-linejoin:miter;stroke-miterlimit:10;stroke-dasharray:2.982, 2.982;stroke-dashoffset:0;stroke-opacity:1"
         id="path17263" />
    </g>
    <g
       id="g17265">
      <g
         id="g17267"
         clip-path="url(#clipPath17271)">
        <g
           id="g17273"
           transform="translate(2.8979,150.5088)">
          <path
             d="M 0,0 -1.474,-0.281"
             style="fill:none;stroke:#000000;stroke-width:1;stroke-linecap:butt;stroke-linejoin:miter;stroke-miterlimit:10;stroke-dasharray:none;stroke-opacity:1"
             id="path17275" />
        </g>
      </g>
    </g>
    <g
       id="g17277"
       transform="translate(474.4243,277.2275)">
      <path
         d="M 0,0 -1.449,-0.389"
         style="fill:none;stroke:#000000;stroke-width:1;stroke-linecap:butt;stroke-linejoin:miter;stroke-miterlimit:10;stroke-dasharray:none;stroke-opacity:1"
         id="path17279" />
    </g>
    <g
       id="g17281"
       transform="translate(470.0913,276.0659)">
      <path
         d="M 0,0 -465.776,-124.896"
         style="fill:none;stroke:#000000;stroke-width:1;stroke-linecap:butt;stroke-linejoin:miter;stroke-miterlimit:10;stroke-dasharray:2.986, 2.986;stroke-dashoffset:0;stroke-opacity:1"
         id="path17283" />
    </g>
    <g
       id="g17285">
      <g
         id="g17287"
         clip-path="url(#clipPath17291)">
        <g
           id="g17293"
           transform="translate(2.873,150.7832)">
          <path
             d="m 0,0 -1.449,-0.389 1.35,-0.655"
             style="fill:none;stroke:#000000;stroke-width:1;stroke-linecap:butt;stroke-linejoin:miter;stroke-miterlimit:10;stroke-dasharray:none;stroke-opacity:1"
             id="path17295" />
        </g>
      </g>
    </g>
    <g
       id="g17297"
       transform="translate(5.4785,148.4268)">
      <path
         d="M 0,0 301.578,-146.388"
         style="fill:none;stroke:#000000;stroke-width:1;stroke-linecap:butt;stroke-linejoin:miter;stroke-miterlimit:10;stroke-dasharray:3.007, 3.007;stroke-dashoffset:0;stroke-opacity:1"
         id="path17299" />
    </g>
    <g
       id="g17301">
      <g
         id="g17303"
         clip-path="url(#clipPath17307)">
        <g
           id="g17309"
           transform="translate(308.4087,1.3828)">
          <path
             d="M 0,0 1.35,-0.655"
             style="fill:none;stroke:#000000;stroke-width:1;stroke-linecap:butt;stroke-linejoin:miter;stroke-miterlimit:10;stroke-dasharray:none;stroke-opacity:1"
             id="path17311" />
        </g>
      </g>
    </g>
    <g
       id="g17313"
       transform="translate(472.0913,102.9775)">
      <path
         d="M 0,0 -1.492,0.15"
         style="fill:none;stroke:#000000;stroke-width:1;stroke-linecap:butt;stroke-linejoin:miter;stroke-miterlimit:10;stroke-dasharray:none;stroke-opacity:1"
         id="path17315" />
    </g>
    <g
       id="g17317"
       transform="translate(467.6196,103.4287)">
      <path
         d="M 0,0 -463.213,46.748"
         style="fill:none;stroke:#000000;stroke-width:1;stroke-linecap:butt;stroke-linejoin:miter;stroke-miterlimit:10;stroke-dasharray:2.994, 2.994;stroke-dashoffset:0;stroke-opacity:1"
         id="path17319" />
    </g>
    <g
       id="g17321">
      <g
         id="g17323"
         clip-path="url(#clipPath17327)">
        <g
           id="g17329"
           transform="translate(2.9165,150.3271)">
          <path
             d="M 0,0 -1.492,0.15"
             style="fill:none;stroke:#000000;stroke-width:1;stroke-linecap:butt;stroke-linejoin:miter;stroke-miterlimit:10;stroke-dasharray:none;stroke-opacity:1"
             id="path17331" />
        </g>
        <g
           id="g17333">
          <g
             id="g17335" />
          <g
             id="g17363">
            <g
               clip-path="url(#clipPath17339)"
               id="g17361">
              <g
                 transform="translate(355.6479,117.4863)"
                 id="g17343">
                <path
                   d="m 0,0 -14.118,7.767 0.084,28.21 14.194,-7.331 z"
                   style="fill:#838383;fill-opacity:1;fill-rule:nonzero;stroke:none"
                   id="path17341" />
              </g>
              <g
                 transform="translate(329.1079,113.5967)"
                 id="g17347">
                <path
                   d="M 0,0 -13.792,7.896 12.422,11.656 26.54,3.89 Z"
                   style="fill:#b6b6b6;fill-opacity:1;fill-rule:nonzero;stroke:none"
                   id="path17345" />
              </g>
              <g
                 transform="translate(328.2163,112.5088)"
                 id="g17351">
                <path
                   d="M 0,0 -13.778,7.915 -13.84,38.241 0.017,30.797 Z"
                   style="fill:#828282;fill-opacity:1;fill-rule:nonzero;stroke:none"
                   id="path17349" />
              </g>
              <g
                 transform="translate(328.2329,143.3062)"
                 id="g17355">
                <path
                   d="m 0,0 -13.856,7.443 28.11,3.775 14.208,-7.312 z"
                   style="fill:#b4b4b4;fill-opacity:1;fill-rule:nonzero;stroke:none"
                   id="path17353" />
              </g>
              <g
                 transform="translate(355.6479,117.4863)"
                 id="g17359">
                <path
                   d="M 0,0 0.16,28.646 -26.52,24.976 -26.54,-3.89 0,0 M -27.415,25.82 1.047,29.726 0.87,-0.82 -27.432,-4.978 Z"
                   style="fill:#dfdfdf;fill-opacity:1;fill-rule:nonzero;stroke:none"
                   id="path17357" />
              </g>
            </g>
          </g>
        </g>
        <g
           id="g17365">
          <g
             id="g17367" />
          <g
             id="g17595">
            <g
               clip-path="url(#clipPath17371)"
               id="g17593">
              <g
                 id="g17451">
                <g
                   id="g17421" />
                <g
                   id="g17449">
                  <g
                     clip-path="url(#clipPath17375)"
                     id="g17447">
                    <g
                       id="g17445">
                      <g
                         clip-path="url(#clipPath17379)"
                         id="g17443">
                        <g
                           id="g17441">
                          <g
                             id="g17423" />
                          <g
                             id="g17439">
                            <g
                               clip-path="url(#clipPath17383)"
                               id="g17437">
                              <g
                                 transform="translate(294.4321,274.9136)"
                                 id="g17427">
                                <path
                                   d="m 0,0 -17.369,9.898 c 0.067,-0.039 0.136,-0.077 0.205,-0.114 0.068,-0.038 0.138,-0.075 0.207,-0.112 0.069,-0.036 0.139,-0.072 0.209,-0.107 0.069,-0.035 0.14,-0.07 0.211,-0.104 l 17.38,-9.904 c -0.072,0.035 -0.143,0.07 -0.214,0.106 -0.07,0.035 -0.142,0.071 -0.212,0.108 -0.07,0.037 -0.14,0.075 -0.21,0.113 C 0.138,-0.078 0.068,-0.04 0,0"
                                   style="fill:#9e9e9e;fill-opacity:1;fill-rule:nonzero;stroke:none"
                                   id="path17425" />
                              </g>
                              <g
                                 transform="translate(295.2749,274.4707)"
                                 id="g17431">
                                <path
                                   d="m 0,0 -17.38,9.904 c 0.208,-0.101 0.42,-0.196 0.634,-0.286 0.214,-0.091 0.431,-0.175 0.649,-0.255 0.22,-0.079 0.442,-0.153 0.666,-0.222 0.224,-0.069 0.451,-0.132 0.68,-0.189 L 2.666,-0.961 C 2.434,-0.903 2.204,-0.84 1.977,-0.771 1.749,-0.702 1.524,-0.627 1.302,-0.546 1.079,-0.466 0.859,-0.38 0.643,-0.29 0.426,-0.198 0.212,-0.102 0,0"
                                   style="fill:#a3a3a3;fill-opacity:1;fill-rule:nonzero;stroke:none"
                                   id="path17429" />
                              </g>
                              <g
                                 transform="translate(297.9409,273.5098)"
                                 id="g17435">
                                <path
                                   d="m 0,0 -17.417,9.913 c 0.445,-0.112 0.9,-0.203 1.362,-0.271 0.462,-0.068 0.933,-0.115 1.409,-0.138 0.477,-0.023 0.961,-0.024 1.451,0 0.489,0.024 0.984,0.071 1.484,0.143 L 5.792,-0.251 C 5.284,-0.327 4.781,-0.377 4.284,-0.402 3.787,-0.428 3.297,-0.43 2.813,-0.408 2.328,-0.385 1.852,-0.34 1.383,-0.271 0.913,-0.204 0.452,-0.113 0,0"
                                   style="fill:#a8a8a8;fill-opacity:1;fill-rule:nonzero;stroke:none"
                                   id="path17433" />
                              </g>
                            </g>
                          </g>
                        </g>
                      </g>
                    </g>
                  </g>
                </g>
              </g>
              <g
                 id="g17503">
                <g
                   id="g17453" />
                <g
                   id="g17501">
                  <g
                     clip-path="url(#clipPath17387)"
                     id="g17499">
                    <g
                       id="g17497">
                      <g
                         clip-path="url(#clipPath17391)"
                         id="g17495">
                        <g
                           id="g17493">
                          <g
                             id="g17455" />
                          <g
                             id="g17491">
                            <g
                               clip-path="url(#clipPath17395)"
                               id="g17489">
                              <g
                                 transform="translate(303.7329,273.2583)"
                                 id="g17459">
                                <path
                                   d="m 0,0 -17.503,9.899 c 0.419,0.06 0.833,0.137 1.243,0.229 0.41,0.092 0.817,0.2 1.218,0.322 0.401,0.123 0.798,0.26 1.188,0.412 0.392,0.152 0.778,0.317 1.158,0.497 L 4.884,1.505 C 4.497,1.321 4.105,1.15 3.708,0.995 3.311,0.838 2.907,0.697 2.5,0.571 2.092,0.444 1.68,0.333 1.263,0.238 0.846,0.143 0.425,0.063 0,0"
                                   style="fill:#a8a8a8;fill-opacity:1;fill-rule:nonzero;stroke:none"
                                   id="path17457" />
                              </g>
                              <g
                                 transform="translate(308.6167,274.7632)"
                                 id="g17463">
                                <path
                                   d="m 0,0 -17.58,9.854 c 0.232,0.109 0.462,0.224 0.689,0.344 0.228,0.119 0.453,0.243 0.677,0.373 0.223,0.129 0.443,0.263 0.661,0.401 0.218,0.139 0.433,0.282 0.646,0.429 L 2.719,1.586 C 2.502,1.436 2.283,1.289 2.062,1.147 1.84,1.005 1.615,0.868 1.389,0.735 1.162,0.603 0.933,0.475 0.701,0.353 0.47,0.23 0.236,0.112 0,0"
                                   style="fill:#a3a3a3;fill-opacity:1;fill-rule:nonzero;stroke:none"
                                   id="path17461" />
                              </g>
                              <g
                                 transform="translate(311.3354,276.3496)"
                                 id="g17467">
                                <path
                                   d="m 0,0 -17.626,9.815 c 0.174,0.121 0.346,0.244 0.515,0.37 0.17,0.126 0.338,0.254 0.504,0.386 0.166,0.132 0.33,0.266 0.492,0.404 0.162,0.137 0.322,0.277 0.48,0.42 L 2.026,1.617 C 1.865,1.471 1.702,1.328 1.537,1.188 1.372,1.047 1.205,0.909 1.036,0.774 0.867,0.64 0.696,0.508 0.523,0.378 0.351,0.25 0.176,0.123 0,0"
                                   style="fill:#9e9e9e;fill-opacity:1;fill-rule:nonzero;stroke:none"
                                   id="path17465" />
                              </g>
                              <g
                                 transform="translate(313.3618,277.9663)"
                                 id="g17471">
                                <path
                                   d="m 0,0 -17.661,9.778 c 0.147,0.133 0.294,0.268 0.437,0.405 0.144,0.138 0.286,0.277 0.426,0.419 0.14,0.142 0.278,0.286 0.415,0.432 0.136,0.146 0.271,0.294 0.403,0.444 L 1.711,1.739 C 1.576,1.585 1.439,1.434 1.301,1.285 1.162,1.135 1.021,0.988 0.879,0.843 0.735,0.698 0.591,0.556 0.444,0.415 0.298,0.274 0.15,0.136 0,0"
                                   style="fill:#999999;fill-opacity:1;fill-rule:nonzero;stroke:none"
                                   id="path17469" />
                              </g>
                              <g
                                 transform="translate(315.0728,279.7051)"
                                 id="g17475">
                                <path
                                   d="m 0,0 -17.691,9.739 c 0.131,0.149 0.261,0.301 0.389,0.454 0.128,0.153 0.253,0.308 0.377,0.465 0.124,0.157 0.245,0.316 0.364,0.477 0.12,0.16 0.237,0.323 0.352,0.487 L 1.512,1.924 C 1.394,1.756 1.274,1.59 1.152,1.426 1.031,1.262 0.907,1.1 0.781,0.939 0.655,0.779 0.527,0.62 0.396,0.464 0.267,0.307 0.135,0.152 0,0"
                                   style="fill:#949494;fill-opacity:1;fill-rule:nonzero;stroke:none"
                                   id="path17473" />
                              </g>
                              <g
                                 transform="translate(316.5845,281.6294)"
                                 id="g17479">
                                <path
                                   d="m 0,0 -17.721,9.698 c 0.122,0.174 0.242,0.349 0.359,0.527 0.117,0.178 0.231,0.358 0.343,0.539 0.112,0.181 0.221,0.364 0.328,0.549 0.106,0.185 0.211,0.372 0.312,0.56 L 1.368,2.222 C 1.265,2.03 1.158,1.839 1.05,1.65 0.94,1.461 0.829,1.274 0.715,1.089 0.602,0.904 0.484,0.72 0.365,0.539 0.246,0.357 0.124,0.178 0,0"
                                   style="fill:#8f8f8f;fill-opacity:1;fill-rule:nonzero;stroke:none"
                                   id="path17477" />
                              </g>
                              <g
                                 transform="translate(317.9526,283.8511)"
                                 id="g17483">
                                <path
                                   d="m 0,0 -17.747,9.651 c 0.119,0.223 0.235,0.447 0.347,0.674 0.112,0.227 0.219,0.455 0.324,0.686 0.103,0.231 0.204,0.464 0.3,0.699 0.095,0.234 0.187,0.471 0.275,0.709 L 1.274,2.826 C 1.185,2.583 1.091,2.341 0.992,2.102 0.895,1.862 0.792,1.624 0.686,1.389 0.579,1.153 0.469,0.919 0.354,0.688 0.24,0.457 0.122,0.227 0,0"
                                   style="fill:#8a8a8a;fill-opacity:1;fill-rule:nonzero;stroke:none"
                                   id="path17481" />
                              </g>
                              <g
                                 transform="translate(319.2271,286.6772)"
                                 id="g17487">
                                <path
                                   d="m 0,0 -17.775,9.593 c 0.203,0.552 0.382,1.113 0.539,1.681 0.157,0.568 0.29,1.145 0.397,1.727 0.108,0.583 0.191,1.173 0.246,1.767 0.056,0.593 0.086,1.192 0.088,1.794 0.005,1.616 -0.189,3.155 -0.559,4.594 -0.371,1.441 -0.916,2.781 -1.613,3.997 -0.697,1.217 -1.545,2.31 -2.517,3.254 -0.974,0.945 -2.075,1.741 -3.275,2.364 l 17.746,-9.205 c 1.217,-0.63 2.33,-1.439 3.316,-2.399 0.984,-0.959 1.842,-2.07 2.545,-3.309 C -0.16,14.621 0.39,13.256 0.761,11.789 1.131,10.323 1.324,8.754 1.313,7.107 1.309,6.494 1.276,5.883 1.218,5.278 1.158,4.672 1.073,4.072 0.962,3.477 0.851,2.883 0.714,2.294 0.553,1.714 0.393,1.134 0.208,0.563 0,0"
                                   style="fill:#858585;fill-opacity:1;fill-rule:nonzero;stroke:none"
                                   id="path17485" />
                              </g>
                            </g>
                          </g>
                        </g>
                      </g>
                    </g>
                  </g>
                </g>
              </g>
              <g
                 transform="translate(303.7329,273.2583)"
                 id="g17507">
                <path
                   d="m 0,0 c 2.311,0.342 4.514,1.175 6.518,2.386 2.002,1.209 3.806,2.797 5.325,4.653 1.518,1.856 2.751,3.98 3.608,6.263 0.858,2.284 1.34,4.729 1.356,7.224 0.016,2.499 -0.435,4.817 -1.267,6.87 -0.832,2.055 -2.046,3.846 -3.551,5.285 -1.509,1.442 -3.309,2.53 -5.314,3.181 -2.009,0.651 -4.221,0.861 -6.547,0.543 -2.33,-0.319 -4.556,-1.137 -6.585,-2.344 -2.03,-1.209 -3.863,-2.807 -5.404,-4.681 -1.541,-1.875 -2.79,-4.026 -3.655,-6.339 -0.863,-2.313 -1.341,-4.788 -1.342,-7.311 -0.001,-2.52 0.474,-4.852 1.334,-6.91 0.858,-2.055 2.099,-3.836 3.629,-5.258 1.53,-1.421 3.347,-2.483 5.362,-3.104 C -4.522,-0.163 -2.314,-0.343 0,0 m 0.131,37.369 c 2.449,0.334 4.777,0.111 6.891,-0.575 2.111,-0.685 4.006,-1.833 5.592,-3.35 1.585,-1.516 2.862,-3.401 3.737,-5.565 0.875,-2.16 1.349,-4.599 1.332,-7.228 C 17.665,18.025 17.157,15.453 16.255,13.05 15.353,10.647 14.056,8.413 12.458,6.46 10.86,4.507 8.961,2.835 6.854,1.562 4.746,0.287 2.429,-0.589 -0.003,-0.951 c -2.435,-0.361 -4.76,-0.172 -6.877,0.48 -2.121,0.653 -4.034,1.771 -5.643,3.265 -1.613,1.498 -2.919,3.372 -3.824,5.535 -0.906,2.167 -1.407,4.621 -1.406,7.274 0,2.656 0.504,5.261 1.413,7.696 0.909,2.437 2.225,4.701 3.849,6.676 1.622,1.973 3.552,3.655 5.69,4.927 2.136,1.271 4.48,2.132 6.932,2.467"
                   style="fill:#dfdfdf;fill-opacity:1;fill-rule:nonzero;stroke:none"
                   id="path17505" />
              </g>
              <g
                 id="g17539">
                <g
                   id="g17509" />
                <g
                   id="g17537">
                  <g
                     clip-path="url(#clipPath17399)"
                     id="g17535">
                    <g
                       id="g17533">
                      <g
                         clip-path="url(#clipPath17403)"
                         id="g17531">
                        <g
                           id="g17529">
                          <g
                             id="g17511" />
                          <g
                             id="g17527">
                            <g
                               clip-path="url(#clipPath17407)"
                               id="g17525">
                              <g
                                 transform="translate(303.8638,310.627)"
                                 id="g17515">
                                <path
                                   d="m 0,0 -17.624,9.185 c 0.529,0.07 1.054,0.114 1.571,0.133 0.518,0.018 1.029,0.012 1.532,-0.019 0.503,-0.031 0.999,-0.087 1.485,-0.166 0.487,-0.078 0.965,-0.181 1.433,-0.305 L 6.112,-0.345 C 5.637,-0.22 5.152,-0.117 4.658,-0.038 4.164,0.041 3.661,0.096 3.15,0.126 2.641,0.156 2.121,0.161 1.596,0.141 1.07,0.12 0.538,0.074 0,0"
                                   style="fill:#a8a8a8;fill-opacity:1;fill-rule:nonzero;stroke:none"
                                   id="path17513" />
                              </g>
                              <g
                                 transform="translate(309.9761,310.2817)"
                                 id="g17519">
                                <path
                                   d="m 0,0 -17.715,9.173 c 0.24,-0.064 0.479,-0.134 0.714,-0.21 0.235,-0.076 0.468,-0.157 0.697,-0.244 0.231,-0.087 0.457,-0.18 0.681,-0.278 0.225,-0.098 0.445,-0.202 0.663,-0.311 L 2.793,-1.055 C 2.572,-0.944 2.349,-0.839 2.121,-0.74 1.895,-0.64 1.664,-0.546 1.432,-0.458 1.198,-0.37 0.962,-0.288 0.724,-0.211 0.485,-0.135 0.244,-0.064 0,0"
                                   style="fill:#a3a3a3;fill-opacity:1;fill-rule:nonzero;stroke:none"
                                   id="path17517" />
                              </g>
                              <g
                                 transform="translate(312.769,309.2271)"
                                 id="g17523">
                                <path
                                   d="m 0,0 -17.753,9.185 c 0.015,-0.008 0.029,-0.015 0.043,-0.022 0.015,-0.007 0.028,-0.015 0.043,-0.022 0.015,-0.007 0.028,-0.015 0.043,-0.021 0.014,-0.008 0.028,-0.015 0.042,-0.023 L 0.174,-0.088 0.13,-0.066 C 0.116,-0.059 0.102,-0.051 0.087,-0.044 0.073,-0.037 0.059,-0.029 0.044,-0.022 L 0,0"
                                   style="fill:#9e9e9e;fill-opacity:1;fill-rule:nonzero;stroke:none"
                                   id="path17521" />
                              </g>
                            </g>
                          </g>
                        </g>
                      </g>
                    </g>
                  </g>
                </g>
              </g>
              <g
                 id="g17591">
                <g
                   id="g17541" />
                <g
                   id="g17589">
                  <g
                     clip-path="url(#clipPath17411)"
                     id="g17587">
                    <g
                       id="g17585">
                      <g
                         clip-path="url(#clipPath17415)"
                         id="g17583">
                        <g
                           id="g17581">
                          <g
                             id="g17543" />
                          <g
                             id="g17579">
                            <g
                               clip-path="url(#clipPath17419)"
                               id="g17577">
                              <g
                                 transform="translate(293.9224,274.0566)"
                                 id="g17547">
                                <path
                                   d="m 0,0 -17.358,9.917 c -1.178,0.672 -2.256,1.508 -3.212,2.485 -0.958,0.979 -1.792,2.099 -2.481,3.34 -0.688,1.242 -1.23,2.604 -1.601,4.065 -0.371,1.461 -0.572,3.021 -0.577,4.657 -0.001,0.64 0.027,1.276 0.083,1.909 0.057,0.631 0.142,1.259 0.253,1.879 0.113,0.622 0.252,1.236 0.417,1.842 0.164,0.606 0.356,1.203 0.571,1.791 l 17.329,-9.509 c -0.22,-0.6 -0.415,-1.21 -0.585,-1.829 -0.169,-0.618 -0.313,-1.245 -0.428,-1.879 -0.116,-0.633 -0.204,-1.272 -0.264,-1.917 -0.059,-0.645 -0.089,-1.294 -0.089,-1.946 -10e-4,-1.668 0.197,-3.258 0.569,-4.747 C -7.001,8.57 -6.455,7.184 -5.76,5.92 -5.065,4.657 -4.222,3.518 -3.253,2.523 -2.285,1.53 -1.193,0.682 0,0"
                                   style="fill:#858585;fill-opacity:1;fill-rule:nonzero;stroke:none"
                                   id="path17545" />
                              </g>
                              <g
                                 transform="translate(287.3462,296.4326)"
                                 id="g17551">
                                <path
                                   d="m 0,0 -17.329,9.509 c 0.093,0.255 0.19,0.507 0.292,0.758 0.101,0.25 0.208,0.498 0.319,0.744 0.111,0.247 0.226,0.49 0.345,0.732 0.119,0.242 0.242,0.482 0.37,0.718 L 1.356,3.015 C 1.227,2.772 1.101,2.528 0.979,2.281 0.856,2.034 0.739,1.785 0.626,1.533 0.513,1.282 0.404,1.028 0.3,0.773 0.195,0.517 0.096,0.259 0,0"
                                   style="fill:#8a8a8a;fill-opacity:1;fill-rule:nonzero;stroke:none"
                                   id="path17549" />
                              </g>
                              <g
                                 transform="translate(288.7026,299.4473)"
                                 id="g17555">
                                <path
                                   d="m 0,0 -17.359,9.447 c 0.107,0.2 0.218,0.4 0.332,0.596 0.114,0.198 0.23,0.393 0.349,0.586 0.12,0.193 0.242,0.385 0.366,0.574 0.125,0.19 0.253,0.377 0.383,0.562 L 1.461,2.368 C 1.328,2.179 1.198,1.987 1.071,1.794 0.943,1.601 0.818,1.405 0.697,1.208 0.575,1.01 0.456,0.811 0.34,0.609 0.224,0.408 0.11,0.205 0,0"
                                   style="fill:#8f8f8f;fill-opacity:1;fill-rule:nonzero;stroke:none"
                                   id="path17553" />
                              </g>
                              <g
                                 transform="translate(290.1636,301.8154)"
                                 id="g17559">
                                <path
                                   d="m 0,0 -17.39,9.397 c 0.123,0.175 0.249,0.348 0.376,0.519 0.128,0.171 0.258,0.34 0.39,0.507 0.132,0.167 0.267,0.332 0.403,0.495 0.137,0.163 0.276,0.324 0.416,0.482 L 1.615,2.048 C 1.472,1.886 1.331,1.722 1.191,1.555 1.053,1.388 0.915,1.22 0.781,1.049 0.646,0.878 0.514,0.705 0.384,0.53 0.254,0.355 0.126,0.179 0,0"
                                   style="fill:#949494;fill-opacity:1;fill-rule:nonzero;stroke:none"
                                   id="path17557" />
                              </g>
                              <g
                                 transform="translate(291.7788,303.8638)"
                                 id="g17563">
                                <path
                                   d="m 0,0 -17.42,9.352 c 0.142,0.16 0.285,0.317 0.431,0.472 0.145,0.155 0.293,0.308 0.443,0.458 0.15,0.151 0.302,0.299 0.455,0.445 0.154,0.146 0.31,0.289 0.468,0.43 L 1.831,1.845 C 1.67,1.701 1.512,1.555 1.354,1.406 1.198,1.256 1.044,1.105 0.891,0.951 0.738,0.797 0.588,0.641 0.439,0.482 0.291,0.324 0.145,0.163 0,0"
                                   style="fill:#999999;fill-opacity:1;fill-rule:nonzero;stroke:none"
                                   id="path17561" />
                              </g>
                              <g
                                 transform="translate(293.6099,305.709)"
                                 id="g17567">
                                <path
                                   d="m 0,0 -17.454,9.312 c 0.169,0.15 0.34,0.298 0.513,0.444 0.173,0.145 0.348,0.287 0.526,0.427 0.177,0.139 0.356,0.275 0.538,0.408 0.182,0.133 0.364,0.263 0.55,0.39 L 2.165,1.709 C 1.977,1.58 1.79,1.446 1.605,1.31 1.421,1.174 1.238,1.034 1.058,0.892 0.877,0.749 0.699,0.604 0.522,0.455 0.346,0.306 0.172,0.155 0,0"
                                   style="fill:#9e9e9e;fill-opacity:1;fill-rule:nonzero;stroke:none"
                                   id="path17565" />
                              </g>
                              <g
                                 transform="translate(295.7749,307.4185)"
                                 id="g17571">
                                <path
                                   d="m 0,0 -17.492,9.271 c 0.227,0.156 0.457,0.307 0.689,0.452 0.233,0.146 0.468,0.287 0.706,0.423 0.238,0.135 0.478,0.266 0.721,0.391 0.242,0.125 0.487,0.245 0.735,0.359 L 2.9,1.666 C 2.648,1.548 2.399,1.425 2.152,1.297 1.906,1.168 1.661,1.035 1.42,0.896 1.178,0.756 0.938,0.612 0.702,0.463 0.465,0.313 0.231,0.159 0,0"
                                   style="fill:#a3a3a3;fill-opacity:1;fill-rule:nonzero;stroke:none"
                                   id="path17569" />
                              </g>
                              <g
                                 transform="translate(298.6753,309.084)"
                                 id="g17575">
                                <path
                                   d="m 0,0 -17.541,9.23 c 0.404,0.187 0.814,0.36 1.23,0.517 0.416,0.157 0.838,0.299 1.265,0.424 0.426,0.126 0.857,0.236 1.292,0.329 0.436,0.093 0.875,0.169 1.318,0.228 L 5.188,1.543 C 4.738,1.482 4.292,1.402 3.85,1.307 3.407,1.21 2.97,1.097 2.536,0.967 2.104,0.838 1.675,0.692 1.252,0.53 0.829,0.369 0.411,0.192 0,0"
                                   style="fill:#a8a8a8;fill-opacity:1;fill-rule:nonzero;stroke:none"
                                   id="path17573" />
                              </g>
                            </g>
                          </g>
                        </g>
                      </g>
                    </g>
                  </g>
                </g>
              </g>
            </g>
          </g>
        </g>
      </g>
    </g>
  </g>
</svg>
