<?xml version="1.0" encoding="UTF-8" standalone="no"?>
<!-- Created with Inkscape (http://www.inkscape.org/) -->

<svg
   version="1.1"
   id="svg5698"
   width="650.66669"
   height="94.666664"
   viewBox="0 0 650.66669 94.666664"
   sodipodi:docname="immediateMode.pdf"
   xmlns:inkscape="http://www.inkscape.org/namespaces/inkscape"
   xmlns:sodipodi="http://sodipodi.sourceforge.net/DTD/sodipodi-0.dtd"
   xmlns="http://www.w3.org/2000/svg"
   xmlns:svg="http://www.w3.org/2000/svg">
  <defs
     id="defs5702">
    <clipPath
       clipPathUnits="userSpaceOnUse"
       id="clipPath5714">
      <path
         d="M 0,71 H 488 V 0 H 0 Z"
         id="path5712" />
    </clipPath>
    <clipPath
       clipPathUnits="userSpaceOnUse"
       id="clipPath5750">
      <path
         d="M 0,71 H 488 V 0 H 0 Z"
         id="path5748" />
    </clipPath>
    <clipPath
       clipPathUnits="userSpaceOnUse"
       id="clipPath5764">
      <path
         d="M 0,71 H 488 V 0 H 0 Z"
         id="path5762" />
    </clipPath>
    <clipPath
       clipPathUnits="userSpaceOnUse"
       id="clipPath5804">
      <path
         d="M 0,71 H 488 V 0 H 0 Z"
         id="path5802" />
    </clipPath>
    <clipPath
       clipPathUnits="userSpaceOnUse"
       id="clipPath5824">
      <path
         d="M 0,71 H 488 V 0 H 0 Z"
         id="path5822" />
    </clipPath>
    <clipPath
       clipPathUnits="userSpaceOnUse"
       id="clipPath5838">
      <path
         d="M 0,71 H 488 V 0 H 0 Z"
         id="path5836" />
    </clipPath>
  </defs>
  <sodipodi:namedview
     id="namedview5700"
     pagecolor="#ffffff"
     bordercolor="#000000"
     borderopacity="0.25"
     inkscape:showpageshadow="2"
     inkscape:pageopacity="0.0"
     inkscape:pagecheckerboard="0"
     inkscape:deskcolor="#d1d1d1"
     showgrid="false" />
  <g
     id="g5706"
     inkscape:groupmode="layer"
     inkscape:label="Page 1"
     transform="matrix(1.3333333,0,0,-1.3333333,0,94.666667)">
    <g
       id="g5708">
      <g
         id="g5710"
         clip-path="url(#clipPath5714)">
        <g
           id="g5716"
           transform="translate(125.5,12.1665)">
          <path
             d="M 0,0 C 0,-6.443 -4.916,-11.667 -11.597,-11.667 H -112.403 C -119.084,-11.667 -125,-6.443 -125,0 v 46.667 c 0,6.443 5.916,11.666 12.597,11.666 H -11.597 C -4.916,58.333 0,53.11 0,46.667 Z"
             style="fill:#e6e6e6;fill-opacity:1;fill-rule:nonzero;stroke:none"
             id="path5718" />
        </g>
        <g
           id="g5720"
           transform="translate(125.5,12.1665)">
          <path
             d="M 0,0 C 0,-6.443 -4.916,-11.667 -11.597,-11.667 H -112.403 C -119.084,-11.667 -125,-6.443 -125,0 v 46.667 c 0,6.443 5.916,11.666 12.597,11.666 H -11.597 C -4.916,58.333 0,53.11 0,46.667 Z"
             style="fill:none;stroke:#000000;stroke-width:1;stroke-linecap:butt;stroke-linejoin:miter;stroke-miterlimit:10;stroke-dasharray:none;stroke-opacity:1"
             id="path5722" />
        </g>
        <g
           id="g5724"
           transform="translate(306.5,12.1665)">
          <path
             d="M 0,0 C 0,-6.443 -4.916,-11.667 -11.597,-11.667 H -112.403 C -119.084,-11.667 -125,-6.443 -125,0 v 46.667 c 0,6.443 5.916,11.666 12.597,11.666 H -11.597 C -4.916,58.333 0,53.11 0,46.667 Z"
             style="fill:#e6e6e6;fill-opacity:1;fill-rule:nonzero;stroke:none"
             id="path5726" />
        </g>
        <g
           id="g5728"
           transform="translate(306.5,12.1665)">
          <path
             d="M 0,0 C 0,-6.443 -4.916,-11.667 -11.597,-11.667 H -112.403 C -119.084,-11.667 -125,-6.443 -125,0 v 46.667 c 0,6.443 5.916,11.666 12.597,11.666 H -11.597 C -4.916,58.333 0,53.11 0,46.667 Z"
             style="fill:none;stroke:#000000;stroke-width:1;stroke-linecap:butt;stroke-linejoin:miter;stroke-miterlimit:10;stroke-dasharray:none;stroke-opacity:1"
             id="path5730" />
        </g>
        <g
           id="g5732"
           transform="translate(487.5,12.1665)">
          <path
             d="M 0,0 C 0,-6.443 -4.916,-11.667 -11.597,-11.667 H -112.403 C -119.084,-11.667 -125,-6.443 -125,0 v 46.667 c 0,6.443 5.916,11.666 12.597,11.666 H -11.597 C -4.916,58.333 0,53.11 0,46.667 Z"
             style="fill:#e6e6e6;fill-opacity:1;fill-rule:nonzero;stroke:none"
             id="path5734" />
        </g>
        <g
           id="g5736"
           transform="translate(487.5,12.1665)">
          <path
             d="M 0,0 C 0,-6.443 -4.916,-11.667 -11.597,-11.667 H -112.403 C -119.084,-11.667 -125,-6.443 -125,0 v 46.667 c 0,6.443 5.916,11.666 12.597,11.666 H -11.597 C -4.916,58.333 0,53.11 0,46.667 Z"
             style="fill:none;stroke:#000000;stroke-width:1;stroke-linecap:butt;stroke-linejoin:miter;stroke-miterlimit:10;stroke-dasharray:none;stroke-opacity:1"
             id="path5738" />
        </g>
      </g>
    </g>
    <text
       xml:space="preserve"
       transform="matrix(1,0,0,-1,40.5645,56.939)"
       style="font-variant:normal;font-weight:normal;font-stretch:normal;font-size:12px;font-family:'Times New Roman';-inkscape-font-specification:TimesNewRomanPSMT;writing-mode:lr-tb;fill:#000000;fill-opacity:1;fill-rule:nonzero;stroke:none"
       id="text5742"><tspan
         x="0 8.6639996 14.664 18 21.336 27.336 32.664001 37.992001"
         y="0"
         sodipodi:role="line"
         id="tspan5740">Aplikace</tspan></text>
    <g
       id="g5744">
      <g
         id="g5746"
         clip-path="url(#clipPath5750)">
        <path
           d="M 116.5,10.5 H 8.5 v 42 h 108 z"
           style="fill:#ffffff;fill-opacity:1;fill-rule:nonzero;stroke:#000000;stroke-width:1;stroke-linecap:butt;stroke-linejoin:miter;stroke-miterlimit:10;stroke-dasharray:none;stroke-opacity:1"
           id="path5752" />
      </g>
    </g>
    <text
       xml:space="preserve"
       transform="matrix(1,0,0,-1,49.3267,40.6123)"
       style="font-variant:normal;font-weight:normal;font-stretch:normal;font-size:10px;font-family:'Times New Roman';-inkscape-font-specification:TimesNewRomanPSMT;writing-mode:lr-tb;fill:#000000;fill-opacity:1;fill-rule:nonzero;stroke:none"
       id="text5756"><tspan
         x="0 8.8900003 13.89 18.889999 23.33"
         y="0"
         sodipodi:role="line"
         id="tspan5754">Model</tspan></text>
    <g
       id="g5758">
      <g
         id="g5760"
         clip-path="url(#clipPath5764)">
        <g
           id="g5766"
           transform="translate(40.5645,26.2793)">
          <path
             d="m 0,0 c 0,-5.093 -4.128,-9.221 -9.221,-9.221 -5.092,0 -9.221,4.128 -9.221,9.221 0,5.092 4.129,9.221 9.221,9.221 C -4.128,9.221 0,5.092 0,0"
             style="fill:#e6e6e6;fill-opacity:1;fill-rule:nonzero;stroke:none"
             id="path5768" />
        </g>
        <g
           id="g5770"
           transform="translate(40.5645,26.2793)">
          <path
             d="m 0,0 c 0,-5.093 -4.128,-9.221 -9.221,-9.221 -5.092,0 -9.221,4.128 -9.221,9.221 0,5.092 4.129,9.221 9.221,9.221 C -4.128,9.221 0,5.092 0,0 Z"
             style="fill:none;stroke:#000000;stroke-width:1;stroke-linecap:butt;stroke-linejoin:miter;stroke-miterlimit:10;stroke-dasharray:none;stroke-opacity:1"
             id="path5772" />
        </g>
        <g
           id="g5774"
           transform="translate(82.4404,18.5)">
          <path
             d="M 0,0 11.088,19.205 22.176,0 Z"
             style="fill:#e6e6e6;fill-opacity:1;fill-rule:nonzero;stroke:none"
             id="path5776" />
        </g>
        <g
           id="g5778"
           transform="translate(82.4404,18.5)">
          <path
             d="M 0,0 11.088,19.205 22.176,0 Z"
             style="fill:none;stroke:#000000;stroke-width:1;stroke-linecap:butt;stroke-linejoin:miter;stroke-miterlimit:10;stroke-dasharray:none;stroke-opacity:1"
             id="path5780" />
        </g>
        <g
           id="g5782"
           transform="translate(142.5,35.8657)">
          <path
             d="m 0,0 v -7.318 l 13,0.193 v -6.741 L 26.77,0 13,13.673 V 6.933 L 0,7.125 Z"
             style="fill:#e6e6e6;fill-opacity:1;fill-rule:nonzero;stroke:none"
             id="path5784" />
        </g>
        <g
           id="g5786"
           transform="translate(142.5,35.8657)">
          <path
             d="m 0,0 v -7.318 l 13,0.193 v -6.741 L 26.77,0 13,13.673 V 6.933 L 0,7.125 Z"
             style="fill:none;stroke:#000000;stroke-width:1;stroke-linecap:butt;stroke-linejoin:miter;stroke-miterlimit:10;stroke-dasharray:none;stroke-opacity:1"
             id="path5788" />
        </g>
      </g>
    </g>
    <text
       xml:space="preserve"
       transform="matrix(1,0,0,-1,209,56.939)"
       style="font-variant:normal;font-weight:normal;font-stretch:normal;font-size:10px;font-family:'Times New Roman';-inkscape-font-specification:TimesNewRomanPSMT;writing-mode:lr-tb;fill:#000000;fill-opacity:1;fill-rule:nonzero;stroke:none"
       id="text5792"><tspan
         x="0 7.2199998 10.55 14.99 18.32 21.1 25.540001 30.540001 34.98 37.48 42.48 47.48 50.259998 55.259998 60.259998 65.260002 70.260002"
         y="0"
         sodipodi:role="line"
         id="tspan5790">Grafická knihovna</tspan></text>
    <text
       xml:space="preserve"
       transform="matrix(1,0,0,-1,134,55.5)"
       style="font-variant:normal;font-weight:normal;font-stretch:normal;font-size:8px;font-family:'Times New Roman';-inkscape-font-specification:TimesNewRomanPSMT;writing-mode:lr-tb;fill:#000000;fill-opacity:1;fill-rule:nonzero;stroke:none"
       id="text5796"><tspan
         x="0 4.888 8.8879995 12.888 15.552 19.104 22.216 24.440001 28.440001 32.439999 35.992001 39.992001"
         y="0"
         sodipodi:role="line"
         id="tspan5794">Vykreslování</tspan></text>
    <g
       id="g5798">
      <g
         id="g5800"
         clip-path="url(#clipPath5804)">
        <g
           id="g5806"
           transform="translate(323.5,35.8657)">
          <path
             d="m 0,0 v -7.318 l 13,0.193 v -6.741 L 26.77,0 13,13.673 V 6.933 L 0,7.125 Z"
             style="fill:#e6e6e6;fill-opacity:1;fill-rule:nonzero;stroke:none"
             id="path5808" />
        </g>
        <g
           id="g5810"
           transform="translate(323.5,35.8657)">
          <path
             d="m 0,0 v -7.318 l 13,0.193 v -6.741 L 26.77,0 13,13.673 V 6.933 L 0,7.125 Z"
             style="fill:none;stroke:#000000;stroke-width:1;stroke-linecap:butt;stroke-linejoin:miter;stroke-miterlimit:10;stroke-dasharray:none;stroke-opacity:1"
             id="path5812" />
        </g>
      </g>
    </g>
    <text
       xml:space="preserve"
       transform="matrix(1,0,0,-1,315,55.5)"
       style="font-variant:normal;font-weight:normal;font-stretch:normal;font-size:8px;font-family:'Times New Roman';-inkscape-font-specification:TimesNewRomanPSMT;writing-mode:lr-tb;fill:#000000;fill-opacity:1;fill-rule:nonzero;stroke:none"
       id="text5816"><tspan
         x="0 4.888 8.8879995 12.888 15.552 19.104 22.216 24.440001 28.440001 32.439999 35.992001 39.992001"
         y="0"
         sodipodi:role="line"
         id="tspan5814">Vykreslování</tspan></text>
    <g
       id="g5818">
      <g
         id="g5820"
         clip-path="url(#clipPath5824)">
        <path
           d="m 479.5,7.5 h -109 v 56 h 109 z"
           style="fill:#ffffff;fill-opacity:1;fill-rule:nonzero;stroke:#000000;stroke-width:1;stroke-linecap:butt;stroke-linejoin:miter;stroke-miterlimit:10;stroke-dasharray:none;stroke-opacity:1"
           id="path5826" />
      </g>
    </g>
    <text
       xml:space="preserve"
       transform="matrix(1,0,0,-1,398.5,51.75)"
       style="font-variant:normal;font-weight:normal;font-stretch:normal;font-size:12px;font-family:'Times New Roman';-inkscape-font-specification:TimesNewRomanPSMT;writing-mode:lr-tb;fill:#000000;fill-opacity:1;fill-rule:nonzero;stroke:none"
       id="text5830"><tspan
         x="0 8.6639996 14.664 18.66 23.988001 29.316 35.316002 41.316002 47.316002"
         y="0"
         sodipodi:role="line"
         id="tspan5828">Obrazovka</tspan></text>
    <g
       id="g5832">
      <g
         id="g5834"
         clip-path="url(#clipPath5838)">
        <g
           id="g5840"
           transform="translate(403.5645,35.2793)">
          <path
             d="m 0,0 c 0,-5.093 -4.129,-9.221 -9.221,-9.221 -5.092,0 -9.22,4.128 -9.22,9.221 0,5.092 4.128,9.221 9.22,9.221 C -4.129,9.221 0,5.092 0,0"
             style="fill:#e6e6e6;fill-opacity:1;fill-rule:nonzero;stroke:none"
             id="path5842" />
        </g>
        <g
           id="g5844"
           transform="translate(403.5645,35.2793)">
          <path
             d="m 0,0 c 0,-5.093 -4.129,-9.221 -9.221,-9.221 -5.092,0 -9.22,4.128 -9.22,9.221 0,5.092 4.128,9.221 9.22,9.221 C -4.129,9.221 0,5.092 0,0 Z"
             style="fill:none;stroke:#000000;stroke-width:1;stroke-linecap:butt;stroke-linejoin:miter;stroke-miterlimit:10;stroke-dasharray:none;stroke-opacity:1"
             id="path5846" />
        </g>
        <g
           id="g5848"
           transform="translate(445.4404,26.5)">
          <path
             d="M 0,0 11.089,19.205 22.177,0 Z"
             style="fill:#e6e6e6;fill-opacity:1;fill-rule:nonzero;stroke:none"
             id="path5850" />
        </g>
        <g
           id="g5852"
           transform="translate(445.4404,26.5)">
          <path
             d="M 0,0 11.089,19.205 22.177,0 Z"
             style="fill:none;stroke:#000000;stroke-width:1;stroke-linecap:butt;stroke-linejoin:miter;stroke-miterlimit:10;stroke-dasharray:none;stroke-opacity:1"
             id="path5854" />
        </g>
      </g>
    </g>
  </g>
</svg>
