<?xml version="1.0" encoding="UTF-8" standalone="no"?>
<!-- Created with Inkscape (http://www.inkscape.org/) -->

<svg
   version="1.1"
   id="svg3877"
   width="382.65332"
   height="265.62799"
   viewBox="0 0 382.65332 265.62799"
   sodipodi:docname="planeFragment.pdf"
   xmlns:inkscape="http://www.inkscape.org/namespaces/inkscape"
   xmlns:sodipodi="http://sodipodi.sourceforge.net/DTD/sodipodi-0.dtd"
   xmlns="http://www.w3.org/2000/svg"
   xmlns:svg="http://www.w3.org/2000/svg">
  <defs
     id="defs3881">
    <clipPath
       clipPathUnits="userSpaceOnUse"
       id="clipPath3901">
      <path
         d="M 0,199.221 H 286.99 V 0 H 0 Z"
         id="path3899" />
    </clipPath>
    <clipPath
       clipPathUnits="userSpaceOnUse"
       id="clipPath3941">
      <path
         d="m 147.446,90.228 c 0,-20.287 16.447,-36.735 36.734,-36.735 v 0 c 20.288,0 36.735,16.448 36.735,36.735 v 0 c 0,20.288 -16.447,36.735 -36.735,36.735 v 0 c -20.287,0 -36.734,-16.447 -36.734,-36.735"
         id="path3939" />
    </clipPath>
    <clipPath
       clipPathUnits="userSpaceOnUse"
       id="clipPath4027">
      <path
         d="M 0,199.221 H 286.99 V 0 H 0 Z"
         id="path4025" />
    </clipPath>
    <clipPath
       clipPathUnits="userSpaceOnUse"
       id="clipPath4079">
      <path
         d="M 0,199.221 H 286.99 V 0 H 0 Z"
         id="path4077" />
    </clipPath>
  </defs>
  <sodipodi:namedview
     id="namedview3879"
     pagecolor="#ffffff"
     bordercolor="#000000"
     borderopacity="0.25"
     inkscape:showpageshadow="2"
     inkscape:pageopacity="0.0"
     inkscape:pagecheckerboard="0"
     inkscape:deskcolor="#d1d1d1"
     showgrid="false"
     inkscape:lockguides="true" />
  <g
     id="g3885"
     inkscape:groupmode="layer"
     inkscape:label="Page 1"
     transform="matrix(1.3333333,0,0,-1.3333333,0,265.628)">
    <g
       id="g3887"
       transform="translate(31.0361,2.7212)">
      <path
         d="M 0,0 111.858,193.745 223.717,0 Z"
         style="fill:#e6e6e6;fill-opacity:1;fill-rule:nonzero;stroke:none"
         id="path3889" />
    </g>
    <g
       id="g3891"
       transform="translate(31.0361,2.7212)">
      <path
         d="M 0,0 111.858,193.745 223.717,0 Z"
         style="fill:none;stroke:#000000;stroke-width:1;stroke-linecap:butt;stroke-linejoin:miter;stroke-miterlimit:10;stroke-dasharray:none;stroke-opacity:1"
         id="path3893" />
    </g>
    <g
       id="g3895">
      <g
         id="g3897"
         clip-path="url(#clipPath3901)">
        <g
           id="g3903"
           transform="translate(221.2188,90.228)">
          <path
             d="m 0,0 c 0,-20.288 -16.446,-36.734 -36.734,-36.734 -20.288,0 -36.735,16.446 -36.735,36.734 0,20.288 16.447,36.735 36.735,36.735 C -16.446,36.735 0,20.288 0,0"
             style="fill:#ffffff;fill-opacity:1;fill-rule:nonzero;stroke:none"
             id="path3905" />
        </g>
        <g
           id="g3907"
           transform="translate(221.2188,90.228)">
          <path
             d="m 0,0 c 0,-20.288 -16.446,-36.734 -36.734,-36.734 -20.288,0 -36.735,16.446 -36.735,36.734 0,20.288 16.447,36.735 36.735,36.735 C -16.446,36.735 0,20.288 0,0 Z"
             style="fill:none;stroke:#000000;stroke-width:1;stroke-linecap:butt;stroke-linejoin:miter;stroke-miterlimit:10;stroke-dasharray:none;stroke-opacity:1"
             id="path3909" />
        </g>
        <g
           id="g3911"
           transform="translate(256.293,3.6108)">
          <path
             d="m 0,0 c 0,-1.718 -1.394,-3.111 -3.111,-3.111 -1.718,0 -3.111,1.393 -3.111,3.111 0,1.718 1.393,3.11 3.111,3.11 C -1.394,3.11 0,1.718 0,0"
             style="fill:#000000;fill-opacity:1;fill-rule:nonzero;stroke:none"
             id="path3913" />
        </g>
        <g
           id="g3915"
           transform="translate(256.293,3.6108)">
          <path
             d="m 0,0 c 0,-1.718 -1.394,-3.111 -3.111,-3.111 -1.718,0 -3.111,1.393 -3.111,3.111 0,1.718 1.393,3.11 3.111,3.11 C -1.394,3.11 0,1.718 0,0 Z"
             style="fill:none;stroke:#000000;stroke-width:1;stroke-linecap:butt;stroke-linejoin:miter;stroke-miterlimit:10;stroke-dasharray:none;stroke-opacity:1"
             id="path3917" />
        </g>
        <g
           id="g3919"
           transform="translate(35.293,3.6108)">
          <path
             d="m 0,0 c 0,-1.718 -1.394,-3.111 -3.111,-3.111 -1.718,0 -3.111,1.393 -3.111,3.111 0,1.718 1.393,3.11 3.111,3.11 C -1.394,3.11 0,1.718 0,0"
             style="fill:#000000;fill-opacity:1;fill-rule:nonzero;stroke:none"
             id="path3921" />
        </g>
        <g
           id="g3923"
           transform="translate(35.293,3.6108)">
          <path
             d="m 0,0 c 0,-1.718 -1.394,-3.111 -3.111,-3.111 -1.718,0 -3.111,1.393 -3.111,3.111 0,1.718 1.393,3.11 3.111,3.11 C -1.394,3.11 0,1.718 0,0 Z"
             style="fill:none;stroke:#000000;stroke-width:1;stroke-linecap:butt;stroke-linejoin:miter;stroke-miterlimit:10;stroke-dasharray:none;stroke-opacity:1"
             id="path3925" />
        </g>
        <g
           id="g3927"
           transform="translate(146.293,195.6108)">
          <path
             d="m 0,0 c 0,-1.718 -1.394,-3.111 -3.111,-3.111 -1.718,0 -3.111,1.393 -3.111,3.111 0,1.718 1.393,3.11 3.111,3.11 C -1.394,3.11 0,1.718 0,0"
             style="fill:#000000;fill-opacity:1;fill-rule:nonzero;stroke:none"
             id="path3929" />
        </g>
        <g
           id="g3931"
           transform="translate(146.293,195.6108)">
          <path
             d="m 0,0 c 0,-1.718 -1.394,-3.111 -3.111,-3.111 -1.718,0 -3.111,1.393 -3.111,3.111 0,1.718 1.393,3.11 3.111,3.11 C -1.394,3.11 0,1.718 0,0 Z"
             style="fill:none;stroke:#000000;stroke-width:1;stroke-linecap:butt;stroke-linejoin:miter;stroke-miterlimit:10;stroke-dasharray:none;stroke-opacity:1"
             id="path3933" />
        </g>
      </g>
    </g>
    <g
       id="g3935">
      <g
         id="g3937"
         clip-path="url(#clipPath3941)">
        <path
           d="m 158,110.721 h -10 v 10 h 10 z"
           style="fill:none;stroke:#000000;stroke-width:1;stroke-linecap:butt;stroke-linejoin:miter;stroke-miterlimit:10;stroke-dasharray:none;stroke-opacity:1"
           id="path3943" />
        <path
           d="m 168,110.721 h -10 v 10 h 10 z"
           style="fill:none;stroke:#000000;stroke-width:1;stroke-linecap:butt;stroke-linejoin:miter;stroke-miterlimit:10;stroke-dasharray:none;stroke-opacity:1"
           id="path3945" />
        <path
           d="m 178,110.721 h -10 v 10 h 10 z"
           style="fill:#e6e6e6;fill-opacity:1;fill-rule:nonzero;stroke:#000000;stroke-width:1;stroke-linecap:butt;stroke-linejoin:miter;stroke-miterlimit:10;stroke-dasharray:none;stroke-opacity:1"
           id="path3947" />
        <path
           d="m 168,120.721 h -10 v 10 h 10 z"
           style="fill:none;stroke:#000000;stroke-width:1;stroke-linecap:butt;stroke-linejoin:miter;stroke-miterlimit:10;stroke-dasharray:none;stroke-opacity:1"
           id="path3949" />
        <path
           d="m 178,120.721 h -10 v 10 h 10 z"
           style="fill:none;stroke:#000000;stroke-width:1;stroke-linecap:butt;stroke-linejoin:miter;stroke-miterlimit:10;stroke-dasharray:none;stroke-opacity:1"
           id="path3951" />
        <path
           d="m 188,110.721 h -10 v 10 h 10 z"
           style="fill:none;stroke:#000000;stroke-width:1;stroke-linecap:butt;stroke-linejoin:miter;stroke-miterlimit:10;stroke-dasharray:none;stroke-opacity:1"
           id="path3953" />
        <path
           d="m 158,100.721 h -10 v 10 h 10 z"
           style="fill:none;stroke:#000000;stroke-width:1;stroke-linecap:butt;stroke-linejoin:miter;stroke-miterlimit:10;stroke-dasharray:none;stroke-opacity:1"
           id="path3955" />
        <path
           d="m 168,100.721 h -10 v 10 h 10 z"
           style="fill:none;stroke:#000000;stroke-width:1;stroke-linecap:butt;stroke-linejoin:miter;stroke-miterlimit:10;stroke-dasharray:none;stroke-opacity:1"
           id="path3957" />
        <path
           d="m 178,100.721 h -10 v 10 h 10 z"
           style="fill:none;stroke:#000000;stroke-width:1;stroke-linecap:butt;stroke-linejoin:miter;stroke-miterlimit:10;stroke-dasharray:none;stroke-opacity:1"
           id="path3959" />
        <path
           d="m 188,100.721 h -10 v 10 h 10 z"
           style="fill:#b3b3b3;fill-opacity:1;fill-rule:nonzero;stroke:#000000;stroke-width:1;stroke-linecap:butt;stroke-linejoin:miter;stroke-miterlimit:10;stroke-dasharray:none;stroke-opacity:1"
           id="path3961" />
        <path
           d="m 198,90.721 h -10 v 10 h 10 z"
           style="fill:none;stroke:#000000;stroke-width:1;stroke-linecap:butt;stroke-linejoin:miter;stroke-miterlimit:10;stroke-dasharray:none;stroke-opacity:1"
           id="path3963" />
        <path
           d="m 158,90.721 h -10 v 10 h 10 z"
           style="fill:none;stroke:#000000;stroke-width:1;stroke-linecap:butt;stroke-linejoin:miter;stroke-miterlimit:10;stroke-dasharray:none;stroke-opacity:1"
           id="path3965" />
        <path
           d="m 168,90.721 h -10 v 10 h 10 z"
           style="fill:#cccccc;fill-opacity:1;fill-rule:nonzero;stroke:#000000;stroke-width:1;stroke-linecap:butt;stroke-linejoin:miter;stroke-miterlimit:10;stroke-dasharray:none;stroke-opacity:1"
           id="path3967" />
        <path
           d="m 178,90.721 h -10 v 10 h 10 z"
           style="fill:#999999;fill-opacity:1;fill-rule:nonzero;stroke:#000000;stroke-width:1;stroke-linecap:butt;stroke-linejoin:miter;stroke-miterlimit:10;stroke-dasharray:none;stroke-opacity:1"
           id="path3969" />
        <path
           d="m 188,90.721 h -10 v 10 h 10 z"
           style="fill:none;stroke:#000000;stroke-width:1;stroke-linecap:butt;stroke-linejoin:miter;stroke-miterlimit:10;stroke-dasharray:none;stroke-opacity:1"
           id="path3971" />
        <path
           d="m 158,80.721 h -10 v 10 h 10 z"
           style="fill:none;stroke:#000000;stroke-width:1;stroke-linecap:butt;stroke-linejoin:miter;stroke-miterlimit:10;stroke-dasharray:none;stroke-opacity:1"
           id="path3973" />
        <path
           d="m 168,80.721 h -10 v 10 h 10 z"
           style="fill:#999999;fill-opacity:1;fill-rule:nonzero;stroke:#000000;stroke-width:1;stroke-linecap:butt;stroke-linejoin:miter;stroke-miterlimit:10;stroke-dasharray:none;stroke-opacity:1"
           id="path3975" />
        <path
           d="m 178,80.721 h -10 v 10 h 10 z"
           style="fill:none;stroke:#000000;stroke-width:1;stroke-linecap:butt;stroke-linejoin:miter;stroke-miterlimit:10;stroke-dasharray:none;stroke-opacity:1"
           id="path3977" />
        <path
           d="m 188,80.721 h -10 v 10 h 10 z"
           style="fill:#e6e6e6;fill-opacity:1;fill-rule:nonzero;stroke:#000000;stroke-width:1;stroke-linecap:butt;stroke-linejoin:miter;stroke-miterlimit:10;stroke-dasharray:none;stroke-opacity:1"
           id="path3979" />
        <path
           d="m 198,80.721 h -10 v 10 h 10 z"
           style="fill:none;stroke:#000000;stroke-width:1;stroke-linecap:butt;stroke-linejoin:miter;stroke-miterlimit:10;stroke-dasharray:none;stroke-opacity:1"
           id="path3981" />
        <path
           d="m 198,70.721 h -10 v 10 h 10 z"
           style="fill:none;stroke:#000000;stroke-width:1;stroke-linecap:butt;stroke-linejoin:miter;stroke-miterlimit:10;stroke-dasharray:none;stroke-opacity:1"
           id="path3983" />
        <path
           d="m 208,70.721 h -10 v 10 h 10 z"
           style="fill:#f2f2f2;fill-opacity:1;fill-rule:nonzero;stroke:#000000;stroke-width:1;stroke-linecap:butt;stroke-linejoin:miter;stroke-miterlimit:10;stroke-dasharray:none;stroke-opacity:1"
           id="path3985" />
        <path
           d="m 158,70.721 h -10 v 10 h 10 z"
           style="fill:#cccccc;fill-opacity:1;fill-rule:nonzero;stroke:#000000;stroke-width:1;stroke-linecap:butt;stroke-linejoin:miter;stroke-miterlimit:10;stroke-dasharray:none;stroke-opacity:1"
           id="path3987" />
        <path
           d="m 168,70.721 h -10 v 10 h 10 z"
           style="fill:none;stroke:#000000;stroke-width:1;stroke-linecap:butt;stroke-linejoin:miter;stroke-miterlimit:10;stroke-dasharray:none;stroke-opacity:1"
           id="path3989" />
        <path
           d="m 178,70.721 h -10 v 10 h 10 z"
           style="fill:#cccccc;fill-opacity:1;fill-rule:nonzero;stroke:#000000;stroke-width:1;stroke-linecap:butt;stroke-linejoin:miter;stroke-miterlimit:10;stroke-dasharray:none;stroke-opacity:1"
           id="path3991" />
        <path
           d="m 188,70.721 h -10 v 10 h 10 z"
           style="fill:#b3b3b3;fill-opacity:1;fill-rule:nonzero;stroke:#000000;stroke-width:1;stroke-linecap:butt;stroke-linejoin:miter;stroke-miterlimit:10;stroke-dasharray:none;stroke-opacity:1"
           id="path3993" />
        <path
           d="m 158,60.721 h -10 v 10 h 10 z"
           style="fill:#cccccc;fill-opacity:1;fill-rule:nonzero;stroke:#000000;stroke-width:1;stroke-linecap:butt;stroke-linejoin:miter;stroke-miterlimit:10;stroke-dasharray:none;stroke-opacity:1"
           id="path3995" />
        <path
           d="m 168,60.721 h -10 v 10 h 10 z"
           style="fill:#b3b3b3;fill-opacity:1;fill-rule:nonzero;stroke:#000000;stroke-width:1;stroke-linecap:butt;stroke-linejoin:miter;stroke-miterlimit:10;stroke-dasharray:none;stroke-opacity:1"
           id="path3997" />
        <path
           d="m 178,60.721 h -10 v 10 h 10 z"
           style="fill:#b3b3b3;fill-opacity:1;fill-rule:nonzero;stroke:#000000;stroke-width:1;stroke-linecap:butt;stroke-linejoin:miter;stroke-miterlimit:10;stroke-dasharray:none;stroke-opacity:1"
           id="path3999" />
        <path
           d="m 188,60.721 h -10 v 10 h 10 z"
           style="fill:#f2f2f2;fill-opacity:1;fill-rule:nonzero;stroke:#000000;stroke-width:1;stroke-linecap:butt;stroke-linejoin:miter;stroke-miterlimit:10;stroke-dasharray:none;stroke-opacity:1"
           id="path4001" />
        <path
           d="m 198,60.721 h -10 v 10 h 10 z"
           style="fill:#e6e6e6;fill-opacity:1;fill-rule:nonzero;stroke:#000000;stroke-width:1;stroke-linecap:butt;stroke-linejoin:miter;stroke-miterlimit:10;stroke-dasharray:none;stroke-opacity:1"
           id="path4003" />
        <path
           d="m 208,60.721 h -10 v 10 h 10 z"
           style="fill:#cccccc;fill-opacity:1;fill-rule:nonzero;stroke:#000000;stroke-width:1;stroke-linecap:butt;stroke-linejoin:miter;stroke-miterlimit:10;stroke-dasharray:none;stroke-opacity:1"
           id="path4005" />
        <path
           d="m 168,50.721 h -10 v 10 h 10 z"
           style="fill:none;stroke:#000000;stroke-width:1;stroke-linecap:butt;stroke-linejoin:miter;stroke-miterlimit:10;stroke-dasharray:none;stroke-opacity:1"
           id="path4007" />
        <path
           d="m 178,50.721 h -10 v 10 h 10 z"
           style="fill:none;stroke:#000000;stroke-width:1;stroke-linecap:butt;stroke-linejoin:miter;stroke-miterlimit:10;stroke-dasharray:none;stroke-opacity:1"
           id="path4009" />
        <path
           d="m 188,50.721 h -10 v 10 h 10 z"
           style="fill:none;stroke:#000000;stroke-width:1;stroke-linecap:butt;stroke-linejoin:miter;stroke-miterlimit:10;stroke-dasharray:none;stroke-opacity:1"
           id="path4011" />
        <path
           d="m 198,50.721 h -10 v 10 h 10 z"
           style="fill:#999999;fill-opacity:1;fill-rule:nonzero;stroke:#000000;stroke-width:1;stroke-linecap:butt;stroke-linejoin:miter;stroke-miterlimit:10;stroke-dasharray:none;stroke-opacity:1"
           id="path4013" />
        <path
           d="m 208,50.721 h -10 v 10 h 10 z"
           style="fill:#e6e6e6;fill-opacity:1;fill-rule:nonzero;stroke:#000000;stroke-width:1;stroke-linecap:butt;stroke-linejoin:miter;stroke-miterlimit:10;stroke-dasharray:none;stroke-opacity:1"
           id="path4015" />
      </g>
    </g>
    <text
       xml:space="preserve"
       transform="matrix(1,0,0,-1,27,108.228)"
       style="font-variant:normal;font-weight:normal;font-stretch:normal;font-size:12px;font-family:'Times New Roman';-inkscape-font-specification:TimesNewRomanPSMT;writing-mode:lr-tb;fill:#000000;fill-opacity:1;fill-rule:nonzero;stroke:none"
       id="text4019"><tspan
         x="0 7.3319998 12.66 16.656 19.992001 25.32 31.32"
         y="0"
         sodipodi:role="line"
         id="tspan4017">Vertexy</tspan></text>
    <g
       id="g4021">
      <g
         id="g4023"
         clip-path="url(#clipPath4027)">
        <g
           id="g4029"
           transform="translate(47.25,118.4712)">
          <path
             d="M 0,0 85.932,71"
             style="fill:#000000;fill-opacity:1;fill-rule:nonzero;stroke:none"
             id="path4031" />
        </g>
        <g
           id="g4033"
           transform="translate(47.25,118.4712)">
          <path
             d="M 0,0 1.156,0.956"
             style="fill:none;stroke:#000000;stroke-width:1;stroke-linecap:butt;stroke-linejoin:miter;stroke-miterlimit:10;stroke-dasharray:none;stroke-opacity:1"
             id="path4035" />
        </g>
        <g
           id="g4037"
           transform="translate(50.6626,121.2905)">
          <path
             d="M 0,0 75.583,62.449"
             style="fill:none;stroke:#000000;stroke-width:1;stroke-linecap:butt;stroke-linejoin:miter;stroke-miterlimit:10;stroke-dasharray:2.927, 2.927;stroke-dashoffset:0;stroke-opacity:1"
             id="path4039" />
        </g>
        <g
           id="g4041"
           transform="translate(127.373,184.6719)">
          <path
             d="M 0,0 1.157,0.955"
             style="fill:none;stroke:#000000;stroke-width:1;stroke-linecap:butt;stroke-linejoin:miter;stroke-miterlimit:10;stroke-dasharray:none;stroke-opacity:1"
             id="path4043" />
        </g>
        <g
           id="g4045"
           transform="translate(133.1821,189.4712)">
          <path
             d="m 0,0 c -1.518,-2.621 -3.089,-6.251 -3.56,-9.11 l -1.703,4.761 -4.355,2.57 C -6.721,-1.855 -2.86,-0.997 0,0"
             style="fill:#000000;fill-opacity:1;fill-rule:nonzero;stroke:none"
             id="path4047" />
        </g>
        <g
           id="g4049"
           transform="translate(41,101.4712)">
          <path
             d="M 0,0 -8.818,-92"
             style="fill:#000000;fill-opacity:1;fill-rule:nonzero;stroke:none"
             id="path4051" />
        </g>
        <g
           id="g4053"
           transform="translate(41,101.4712)">
          <path
             d="M 0,0 -0.143,-1.493"
             style="fill:none;stroke:#000000;stroke-width:1;stroke-linecap:butt;stroke-linejoin:miter;stroke-miterlimit:10;stroke-dasharray:none;stroke-opacity:1"
             id="path4055" />
        </g>
        <g
           id="g4057"
           transform="translate(40.562,96.9038)">
          <path
             d="M 0,0 -7.514,-78.395"
             style="fill:none;stroke:#000000;stroke-width:1;stroke-linecap:butt;stroke-linejoin:miter;stroke-miterlimit:10;stroke-dasharray:3.088, 3.088;stroke-dashoffset:0;stroke-opacity:1"
             id="path4059" />
        </g>
        <g
           id="g4061"
           transform="translate(32.9009,16.9722)">
          <path
             d="M 0,0 -0.143,-1.493"
             style="fill:none;stroke:#000000;stroke-width:1;stroke-linecap:butt;stroke-linejoin:miter;stroke-miterlimit:10;stroke-dasharray:none;stroke-opacity:1"
             id="path4063" />
        </g>
        <g
           id="g4065"
           transform="translate(32.1821,9.4712)">
          <path
             d="M 0,0 C -0.778,2.927 -2.231,6.606 -3.918,8.962 L 0.651,6.796 5.549,8.055 C 3.445,6.063 1.319,2.727 0,0"
             style="fill:#000000;fill-opacity:1;fill-rule:nonzero;stroke:none"
             id="path4067" />
        </g>
      </g>
    </g>
    <text
       xml:space="preserve"
       transform="matrix(1,0,0,-1,235,108.228)"
       style="font-variant:normal;font-weight:normal;font-stretch:normal;font-size:12px;font-family:'Times New Roman';-inkscape-font-specification:TimesNewRomanPSMT;writing-mode:lr-tb;fill:#000000;fill-opacity:1;fill-rule:nonzero;stroke:none"
       id="text4071"><tspan
         x="0 6.6719999 10.668 15.996 21.996 31.332001 36.66 42.66 45.995998"
         y="0"
         sodipodi:role="line"
         id="tspan4069">Fragmenty</tspan></text>
    <g
       id="g4073">
      <g
         id="g4075"
         clip-path="url(#clipPath4079)">
        <g
           id="g4081"
           transform="translate(192.5,115.7212)">
          <path
             d="M 0,0 40.25,-3"
             style="fill:#000000;fill-opacity:1;fill-rule:nonzero;stroke:none"
             id="path4083" />
        </g>
        <g
           id="g4085"
           transform="translate(198.5186,115.2725)">
          <path
             d="M 0,0 1.496,-0.111"
             style="fill:none;stroke:#000000;stroke-width:1;stroke-linecap:butt;stroke-linejoin:miter;stroke-miterlimit:10;stroke-dasharray:none;stroke-opacity:1"
             id="path4087" />
        </g>
        <g
           id="g4089"
           transform="translate(202.8545,114.9492)">
          <path
             d="M 0,0 26.979,-2.011"
             style="fill:none;stroke:#000000;stroke-width:1;stroke-linecap:butt;stroke-linejoin:miter;stroke-miterlimit:10;stroke-dasharray:2.848, 2.848;stroke-dashoffset:0;stroke-opacity:1"
             id="path4091" />
        </g>
        <g
           id="g4093"
           transform="translate(231.2539,112.8325)">
          <path
             d="M 0,0 1.496,-0.111"
             style="fill:none;stroke:#000000;stroke-width:1;stroke-linecap:butt;stroke-linejoin:miter;stroke-miterlimit:10;stroke-dasharray:none;stroke-opacity:1"
             id="path4095" />
        </g>
        <g
           id="g4097"
           transform="translate(192.5,115.7212)">
          <path
             d="M 0,0 C 2.754,-1.262 6.134,-3.316 8.17,-5.378 L 6.808,-0.507 8.877,4.106 C 6.558,2.37 2.91,0.839 0,0"
             style="fill:#000000;fill-opacity:1;fill-rule:nonzero;stroke:none"
             id="path4099" />
        </g>
        <g
           id="g4101"
           transform="translate(210.25,84.4712)">
          <path
             d="M 0,0 22.5,28.012"
             style="fill:#000000;fill-opacity:1;fill-rule:nonzero;stroke:none"
             id="path4103" />
        </g>
        <g
           id="g4105"
           transform="translate(214.0293,89.1763)">
          <path
             d="M 0,0 0.939,1.169"
             style="fill:none;stroke:#000000;stroke-width:1;stroke-linecap:butt;stroke-linejoin:miter;stroke-miterlimit:10;stroke-dasharray:none;stroke-opacity:1"
             id="path4107" />
        </g>
        <g
           id="g4109"
           transform="translate(216.8398,92.6758)">
          <path
             d="M 0,0 14.035,17.473"
             style="fill:none;stroke:#000000;stroke-width:1;stroke-linecap:butt;stroke-linejoin:miter;stroke-miterlimit:10;stroke-dasharray:2.988, 2.988;stroke-dashoffset:0;stroke-opacity:1"
             id="path4111" />
        </g>
        <g
           id="g4113"
           transform="translate(231.8105,111.3135)">
          <path
             d="M 0,0 0.939,1.169"
             style="fill:none;stroke:#000000;stroke-width:1;stroke-linecap:butt;stroke-linejoin:miter;stroke-miterlimit:10;stroke-dasharray:none;stroke-opacity:1"
             id="path4115" />
        </g>
        <g
           id="g4117"
           transform="translate(210.25,84.4712)">
          <path
             d="M 0,0 C 2.6,1.554 6.208,3.175 9.061,3.686 L 4.275,5.323 1.646,9.642 C 1.763,6.746 0.958,2.874 0,0"
             style="fill:#000000;fill-opacity:1;fill-rule:nonzero;stroke:none"
             id="path4119" />
        </g>
      </g>
    </g>
  </g>
</svg>
