<?xml version="1.0" encoding="UTF-8" standalone="no"?>
<!-- Created with Inkscape (http://www.inkscape.org/) -->

<svg
   version="1.1"
   id="svg3473"
   width="650.66669"
   height="94.666664"
   viewBox="0 0 650.66669 94.666664"
   sodipodi:docname="retainedMode.pdf"
   xmlns:inkscape="http://www.inkscape.org/namespaces/inkscape"
   xmlns:sodipodi="http://sodipodi.sourceforge.net/DTD/sodipodi-0.dtd"
   xmlns="http://www.w3.org/2000/svg"
   xmlns:svg="http://www.w3.org/2000/svg">
  <defs
     id="defs3477">
    <clipPath
       clipPathUnits="userSpaceOnUse"
       id="clipPath3489">
      <path
         d="M 0,71 H 488 V 0 H 0 Z"
         id="path3487" />
    </clipPath>
    <clipPath
       clipPathUnits="userSpaceOnUse"
       id="clipPath3525">
      <path
         d="M 0,71 H 488 V 0 H 0 Z"
         id="path3523" />
    </clipPath>
    <clipPath
       clipPathUnits="userSpaceOnUse"
       id="clipPath3539">
      <path
         d="M 0,71 H 488 V 0 H 0 Z"
         id="path3537" />
    </clipPath>
    <clipPath
       clipPathUnits="userSpaceOnUse"
       id="clipPath3579">
      <path
         d="M 0,71 H 488 V 0 H 0 Z"
         id="path3577" />
    </clipPath>
    <clipPath
       clipPathUnits="userSpaceOnUse"
       id="clipPath3599">
      <path
         d="M 0,71 H 488 V 0 H 0 Z"
         id="path3597" />
    </clipPath>
    <clipPath
       clipPathUnits="userSpaceOnUse"
       id="clipPath3613">
      <path
         d="M 0,71 H 488 V 0 H 0 Z"
         id="path3611" />
    </clipPath>
  </defs>
  <sodipodi:namedview
     id="namedview3475"
     pagecolor="#ffffff"
     bordercolor="#000000"
     borderopacity="0.25"
     inkscape:showpageshadow="2"
     inkscape:pageopacity="0.0"
     inkscape:pagecheckerboard="0"
     inkscape:deskcolor="#d1d1d1"
     showgrid="false" />
  <g
     id="g3481"
     inkscape:groupmode="layer"
     inkscape:label="Page 1"
     transform="matrix(1.3333333,0,0,-1.3333333,0,94.666667)">
    <g
       id="g3483">
      <g
         id="g3485"
         clip-path="url(#clipPath3489)">
        <g
           id="g3491"
           transform="translate(125.5,12.1665)">
          <path
             d="M 0,0 C 0,-6.443 -4.916,-11.667 -11.597,-11.667 H -112.403 C -119.084,-11.667 -125,-6.443 -125,0 v 46.667 c 0,6.443 5.916,11.666 12.597,11.666 H -11.597 C -4.916,58.333 0,53.11 0,46.667 Z"
             style="fill:#e6e6e6;fill-opacity:1;fill-rule:nonzero;stroke:none"
             id="path3493" />
        </g>
        <g
           id="g3495"
           transform="translate(125.5,12.1665)">
          <path
             d="M 0,0 C 0,-6.443 -4.916,-11.667 -11.597,-11.667 H -112.403 C -119.084,-11.667 -125,-6.443 -125,0 v 46.667 c 0,6.443 5.916,11.666 12.597,11.666 H -11.597 C -4.916,58.333 0,53.11 0,46.667 Z"
             style="fill:none;stroke:#000000;stroke-width:1;stroke-linecap:butt;stroke-linejoin:miter;stroke-miterlimit:10;stroke-dasharray:none;stroke-opacity:1"
             id="path3497" />
        </g>
        <g
           id="g3499"
           transform="translate(306.5,12.1665)">
          <path
             d="M 0,0 C 0,-6.443 -4.916,-11.667 -11.597,-11.667 H -112.403 C -119.084,-11.667 -125,-6.443 -125,0 v 46.667 c 0,6.443 5.916,11.666 12.597,11.666 H -11.597 C -4.916,58.333 0,53.11 0,46.667 Z"
             style="fill:#e6e6e6;fill-opacity:1;fill-rule:nonzero;stroke:none"
             id="path3501" />
        </g>
        <g
           id="g3503"
           transform="translate(306.5,12.1665)">
          <path
             d="M 0,0 C 0,-6.443 -4.916,-11.667 -11.597,-11.667 H -112.403 C -119.084,-11.667 -125,-6.443 -125,0 v 46.667 c 0,6.443 5.916,11.666 12.597,11.666 H -11.597 C -4.916,58.333 0,53.11 0,46.667 Z"
             style="fill:none;stroke:#000000;stroke-width:1;stroke-linecap:butt;stroke-linejoin:miter;stroke-miterlimit:10;stroke-dasharray:none;stroke-opacity:1"
             id="path3505" />
        </g>
        <g
           id="g3507"
           transform="translate(487.5,12.1665)">
          <path
             d="M 0,0 C 0,-6.443 -4.916,-11.667 -11.597,-11.667 H -112.403 C -119.084,-11.667 -125,-6.443 -125,0 v 46.667 c 0,6.443 5.916,11.666 12.597,11.666 H -11.597 C -4.916,58.333 0,53.11 0,46.667 Z"
             style="fill:#e6e6e6;fill-opacity:1;fill-rule:nonzero;stroke:none"
             id="path3509" />
        </g>
        <g
           id="g3511"
           transform="translate(487.5,12.1665)">
          <path
             d="M 0,0 C 0,-6.443 -4.916,-11.667 -11.597,-11.667 H -112.403 C -119.084,-11.667 -125,-6.443 -125,0 v 46.667 c 0,6.443 5.916,11.666 12.597,11.666 H -11.597 C -4.916,58.333 0,53.11 0,46.667 Z"
             style="fill:none;stroke:#000000;stroke-width:1;stroke-linecap:butt;stroke-linejoin:miter;stroke-miterlimit:10;stroke-dasharray:none;stroke-opacity:1"
             id="path3513" />
        </g>
      </g>
    </g>
    <text
       xml:space="preserve"
       transform="matrix(1,0,0,-1,40.5645,56.939)"
       style="font-variant:normal;font-weight:normal;font-stretch:normal;font-size:12px;font-family:'Times New Roman';-inkscape-font-specification:TimesNewRomanPSMT;writing-mode:lr-tb;fill:#000000;fill-opacity:1;fill-rule:nonzero;stroke:none"
       id="text3517"><tspan
         x="0 8.6639996 14.664 18 21.336 27.336 32.664001 37.992001"
         y="0"
         sodipodi:role="line"
         id="tspan3515">Aplikace</tspan></text>
    <g
       id="g3519">
      <g
         id="g3521"
         clip-path="url(#clipPath3525)">
        <path
           d="m 298.5,10.5 h -108 v 42 h 108 z"
           style="fill:#ffffff;fill-opacity:1;fill-rule:nonzero;stroke:#000000;stroke-width:1;stroke-linecap:butt;stroke-linejoin:miter;stroke-miterlimit:10;stroke-dasharray:none;stroke-opacity:1"
           id="path3527" />
      </g>
    </g>
    <text
       xml:space="preserve"
       transform="matrix(1,0,0,-1,231.3267,40.6123)"
       style="font-variant:normal;font-weight:normal;font-stretch:normal;font-size:10px;font-family:'Times New Roman';-inkscape-font-specification:TimesNewRomanPSMT;writing-mode:lr-tb;fill:#000000;fill-opacity:1;fill-rule:nonzero;stroke:none"
       id="text3531"><tspan
         x="0 8.8900003 13.89 18.889999 23.33"
         y="0"
         sodipodi:role="line"
         id="tspan3529">Model</tspan></text>
    <g
       id="g3533">
      <g
         id="g3535"
         clip-path="url(#clipPath3539)">
        <g
           id="g3541"
           transform="translate(222.5645,26.2793)">
          <path
             d="m 0,0 c 0,-5.093 -4.128,-9.221 -9.221,-9.221 -5.092,0 -9.221,4.128 -9.221,9.221 0,5.092 4.129,9.221 9.221,9.221 C -4.128,9.221 0,5.092 0,0"
             style="fill:#e6e6e6;fill-opacity:1;fill-rule:nonzero;stroke:none"
             id="path3543" />
        </g>
        <g
           id="g3545"
           transform="translate(222.5645,26.2793)">
          <path
             d="m 0,0 c 0,-5.093 -4.128,-9.221 -9.221,-9.221 -5.092,0 -9.221,4.128 -9.221,9.221 0,5.092 4.129,9.221 9.221,9.221 C -4.128,9.221 0,5.092 0,0 Z"
             style="fill:none;stroke:#000000;stroke-width:1;stroke-linecap:butt;stroke-linejoin:miter;stroke-miterlimit:10;stroke-dasharray:none;stroke-opacity:1"
             id="path3547" />
        </g>
        <g
           id="g3549"
           transform="translate(264.4404,18.5)">
          <path
             d="M 0,0 11.088,19.205 22.176,0 Z"
             style="fill:#e6e6e6;fill-opacity:1;fill-rule:nonzero;stroke:none"
             id="path3551" />
        </g>
        <g
           id="g3553"
           transform="translate(264.4404,18.5)">
          <path
             d="M 0,0 11.088,19.205 22.176,0 Z"
             style="fill:none;stroke:#000000;stroke-width:1;stroke-linecap:butt;stroke-linejoin:miter;stroke-miterlimit:10;stroke-dasharray:none;stroke-opacity:1"
             id="path3555" />
        </g>
        <g
           id="g3557"
           transform="translate(142.5,35.8657)">
          <path
             d="m 0,0 v -7.318 l 13,0.193 v -6.741 L 26.77,0 13,13.673 V 6.933 L 0,7.125 Z"
             style="fill:#e6e6e6;fill-opacity:1;fill-rule:nonzero;stroke:none"
             id="path3559" />
        </g>
        <g
           id="g3561"
           transform="translate(142.5,35.8657)">
          <path
             d="m 0,0 v -7.318 l 13,0.193 v -6.741 L 26.77,0 13,13.673 V 6.933 L 0,7.125 Z"
             style="fill:none;stroke:#000000;stroke-width:1;stroke-linecap:butt;stroke-linejoin:miter;stroke-miterlimit:10;stroke-dasharray:none;stroke-opacity:1"
             id="path3563" />
        </g>
      </g>
    </g>
    <text
       xml:space="preserve"
       transform="matrix(1,0,0,-1,209,56.939)"
       style="font-variant:normal;font-weight:normal;font-stretch:normal;font-size:10px;font-family:'Times New Roman';-inkscape-font-specification:TimesNewRomanPSMT;writing-mode:lr-tb;fill:#000000;fill-opacity:1;fill-rule:nonzero;stroke:none"
       id="text3567"><tspan
         x="0 7.2199998 10.55 14.99 18.32 21.1 25.540001 30.540001 34.98 37.48 42.48 47.48 50.259998 55.259998 60.259998 65.260002 70.260002"
         y="0"
         sodipodi:role="line"
         id="tspan3565">Grafická knihovna</tspan></text>
    <text
       xml:space="preserve"
       transform="matrix(1,0,0,-1,134,55.5)"
       style="font-variant:normal;font-weight:normal;font-stretch:normal;font-size:8px;font-family:'Times New Roman';-inkscape-font-specification:TimesNewRomanPSMT;writing-mode:lr-tb;fill:#000000;fill-opacity:1;fill-rule:nonzero;stroke:none"
       id="text3571"><tspan
         x="0 5.776 9.776 12 16 19.552 21.775999 24 27.552 31.104 34.655998"
         y="0"
         sodipodi:role="line"
         id="tspan3569">Aktualizace</tspan></text>
    <g
       id="g3573">
      <g
         id="g3575"
         clip-path="url(#clipPath3579)">
        <g
           id="g3581"
           transform="translate(323.5,35.8657)">
          <path
             d="m 0,0 v -7.318 l 13,0.193 v -6.741 L 26.77,0 13,13.673 V 6.933 L 0,7.125 Z"
             style="fill:#e6e6e6;fill-opacity:1;fill-rule:nonzero;stroke:none"
             id="path3583" />
        </g>
        <g
           id="g3585"
           transform="translate(323.5,35.8657)">
          <path
             d="m 0,0 v -7.318 l 13,0.193 v -6.741 L 26.77,0 13,13.673 V 6.933 L 0,7.125 Z"
             style="fill:none;stroke:#000000;stroke-width:1;stroke-linecap:butt;stroke-linejoin:miter;stroke-miterlimit:10;stroke-dasharray:none;stroke-opacity:1"
             id="path3587" />
        </g>
      </g>
    </g>
    <text
       xml:space="preserve"
       transform="matrix(1,0,0,-1,315,55.5)"
       style="font-variant:normal;font-weight:normal;font-stretch:normal;font-size:8px;font-family:'Times New Roman';-inkscape-font-specification:TimesNewRomanPSMT;writing-mode:lr-tb;fill:#000000;fill-opacity:1;fill-rule:nonzero;stroke:none"
       id="text3591"><tspan
         x="0 4.888 8.8879995 12.888 15.552 19.104 22.216 24.440001 28.440001 32.439999 35.992001 39.992001"
         y="0"
         sodipodi:role="line"
         id="tspan3589">Vykreslování</tspan></text>
    <g
       id="g3593">
      <g
         id="g3595"
         clip-path="url(#clipPath3599)">
        <path
           d="m 479.5,7.5 h -109 v 56 h 109 z"
           style="fill:#ffffff;fill-opacity:1;fill-rule:nonzero;stroke:#000000;stroke-width:1;stroke-linecap:butt;stroke-linejoin:miter;stroke-miterlimit:10;stroke-dasharray:none;stroke-opacity:1"
           id="path3601" />
      </g>
    </g>
    <text
       xml:space="preserve"
       transform="matrix(1,0,0,-1,398.5,50.75)"
       style="font-variant:normal;font-weight:normal;font-stretch:normal;font-size:12px;font-family:'Times New Roman';-inkscape-font-specification:TimesNewRomanPSMT;writing-mode:lr-tb;fill:#000000;fill-opacity:1;fill-rule:nonzero;stroke:none"
       id="text3605"><tspan
         x="0 8.6639996 14.664 18.66 23.988001 29.316 35.316002 41.316002 47.316002"
         y="0"
         sodipodi:role="line"
         id="tspan3603">Obrazovka</tspan></text>
    <g
       id="g3607">
      <g
         id="g3609"
         clip-path="url(#clipPath3613)">
        <g
           id="g3615"
           transform="translate(403.5645,35.2793)">
          <path
             d="m 0,0 c 0,-5.093 -4.129,-9.221 -9.221,-9.221 -5.092,0 -9.22,4.128 -9.22,9.221 0,5.092 4.128,9.221 9.22,9.221 C -4.129,9.221 0,5.092 0,0"
             style="fill:#e6e6e6;fill-opacity:1;fill-rule:nonzero;stroke:none"
             id="path3617" />
        </g>
        <g
           id="g3619"
           transform="translate(403.5645,35.2793)">
          <path
             d="m 0,0 c 0,-5.093 -4.129,-9.221 -9.221,-9.221 -5.092,0 -9.22,4.128 -9.22,9.221 0,5.092 4.128,9.221 9.22,9.221 C -4.129,9.221 0,5.092 0,0 Z"
             style="fill:none;stroke:#000000;stroke-width:1;stroke-linecap:butt;stroke-linejoin:miter;stroke-miterlimit:10;stroke-dasharray:none;stroke-opacity:1"
             id="path3621" />
        </g>
        <g
           id="g3623"
           transform="translate(445.4404,26.5)">
          <path
             d="M 0,0 11.089,19.205 22.177,0 Z"
             style="fill:#e6e6e6;fill-opacity:1;fill-rule:nonzero;stroke:none"
             id="path3625" />
        </g>
        <g
           id="g3627"
           transform="translate(445.4404,26.5)">
          <path
             d="M 0,0 11.089,19.205 22.177,0 Z"
             style="fill:none;stroke:#000000;stroke-width:1;stroke-linecap:butt;stroke-linejoin:miter;stroke-miterlimit:10;stroke-dasharray:none;stroke-opacity:1"
             id="path3629" />
        </g>
      </g>
    </g>
    <text
       xml:space="preserve"
       transform="matrix(1,0,0,-1,142,11)"
       style="font-variant:normal;font-weight:normal;font-stretch:normal;font-size:8px;font-family:'Times New Roman';-inkscape-font-specification:TimesNewRomanPSMT;writing-mode:lr-tb;fill:#000000;fill-opacity:1;fill-rule:nonzero;stroke:none"
       id="text3633"><tspan
         x="0 6.224 10.224 14.224 17.775999 20"
         y="0"
         sodipodi:role="line"
         id="tspan3631">modelu</tspan></text>
  </g>
</svg>
