<?xml version="1.0" encoding="UTF-8" standalone="no"?>
<!-- Created with Inkscape (http://www.inkscape.org/) -->

<svg
   version="1.1"
   id="svg1622"
   width="145.33333"
   height="145.33333"
   viewBox="0 0 145.33333 145.33333"
   sodipodi:docname="vut-zp2.pdf"
   xmlns:inkscape="http://www.inkscape.org/namespaces/inkscape"
   xmlns:sodipodi="http://sodipodi.sourceforge.net/DTD/sodipodi-0.dtd"
   xmlns="http://www.w3.org/2000/svg"
   xmlns:svg="http://www.w3.org/2000/svg">
  <defs
     id="defs1626" />
  <sodipodi:namedview
     id="namedview1624"
     pagecolor="#ffffff"
     bordercolor="#000000"
     borderopacity="0.25"
     inkscape:showpageshadow="2"
     inkscape:pageopacity="0.0"
     inkscape:pagecheckerboard="0"
     inkscape:deskcolor="#d1d1d1"
     showgrid="false" />
  <g
     id="g1630"
     inkscape:groupmode="layer"
     inkscape:label="Page 1"
     transform="matrix(1.3333333,0,0,-1.3333333,0,145.33333)">
    <g
       id="g1632"
       transform="scale(0.1)">
      <path
         d="M 529.91,531.02 H 5.63281 V 6.74219 H 529.91 Z m -5.246,-5.247 H 10.8789 V 11.9883 H 524.664 V 525.773"
         style="fill:#918f90;fill-opacity:1;fill-rule:evenodd;stroke:none"
         id="path1634" />
      <path
         d="m 166.621,42.0781 9.281,9.2774 C 143.801,63.4609 113.91,84.1523 89.5391,108.023 L 23.5898,42.0781 H 166.621"
         style="fill:#15356f;fill-opacity:1;fill-rule:evenodd;stroke:none"
         id="path1636" />
      <path
         d="M 344.914,54.6016 C 320.652,46.4844 294.711,42.0781 267.77,42.0781 139.113,42.0781 33.2031,142.406 24.2227,268.84 H 125.797 c 8.156,-66.727 62.547,-119.485 130,-125.117 z m 29.504,136.4924 c 18.961,21.222 31.707,48.105 35.328,77.746 H 511.32 C 507.238,211.363 483.121,159.285 445.941,119.57 l -71.523,71.524"
         style="fill:#15356f;fill-opacity:1;fill-rule:evenodd;stroke:none"
         id="path1638" />
      <path
         d="M 368.922,42.0781 H 511.953 L 267.77,286.258 172.492,190.977 c 21.922,-23.325 55.582,-36.352 86.828,-39.297 L 368.922,42.0781"
         style="fill:#15356f;fill-opacity:1;fill-rule:evenodd;stroke:none"
         id="path1640" />
      <path
         d="M 10.8828,1082.38 H 92.2266 V 826.273 H 10.8828 Z m 257.6802,0 v -0.01 h 1.832 V 826.273 h 83.972 v 256.107 z m 0,-257.681 v -85.797 c 47.07,0.422 85.371,38.723 85.796,85.797 z m 0,-87.367 v -85.809 c 95.199,0.426 172.75,77.977 173.171,173.176 H 355.93 c -0.422,-47.937 -39.434,-86.945 -87.367,-87.367 z m 0,-87.383 v -81.344 c 140.867,0.422 255.667,115.227 256.093,256.094 h -81.347 c -0.426,-96.066 -78.68,-174.32 -174.746,-174.75 z m -1.575,-81.355 v 81.347 H 92.2266 V 824.699 H 10.8828 V 568.594 Z m 0,82.918 v 85.808 h -87.379 v 87.379 H 93.8008 V 651.512 Z m 0,87.379 v 85.808 H 181.18 v -85.808 z m 0,343.479 v 0.01 H 181.18 V 826.273 h 83.972 V 1082.37 Z M 443.32,826.273 v 256.107 h 81.348 V 826.273 Z m -349.5192,0 H 179.609 V 1082.38 H 93.8008 Z m 262.1402,0 h 85.805 v 256.107 h -85.805 z m 173.973,-0.789 v -0.785 h -0.008 C 529.477,680.676 411.895,563.344 267.773,563.344 H 5.63281 V 1087.63 H 529.914 V 825.484"
         style="fill:#918f90;fill-opacity:1;fill-rule:evenodd;stroke:none"
         id="path1642" />
      <path
         d="M 1081.27,525.773 V 444.422 H 825.168 v 81.351 z m -513.782,-168.73 256.11,0.004 v 85.805 h -256.11 z m 0,-1.57 v -85.809 c 104.621,0 164.836,0 256.11,0 v 85.809 z m 0,88.949 h 256.11 v 81.351 H 567.488 Z M 1081.27,268.09 h -0.01 v -1.832 H 825.168 v -83.973 h 256.112 z m -257.672,0.004 h -85.801 c 0.426,-47.074 38.726,-85.375 85.801,-85.797 z M 736.227,268.09 H 650.422 C 650.844,172.895 728.395,95.3438 823.598,94.9141 v 85.8089 c -47.942,0.422 -86.95,39.433 -87.371,87.367 z m -87.379,0 H 567.496 C 567.926,127.223 682.73,12.4219 823.598,11.9961 V 93.3438 C 727.531,93.7695 649.273,172.023 648.848,268.09 Z m 432.412,1.574 h 0.01 l 0.01,85.809 H 825.168 V 271.5 H 1081.26 Z M 825.168,93.332 H 1081.27 V 11.9844 H 825.168 Z m 0,349.52 v -85.809 l 256.112,0.004 v 85.805 z m 0,-262.137 V 94.9023 H 1081.28 V 180.711 Z M 824.383,6.73828 h -0.785 V 6.75 C 679.57,7.17578 562.242,124.754 562.242,268.879 V 531.02 H 1086.52 V 6.73828 H 824.383"
         style="fill:#918f90;fill-opacity:1;fill-rule:evenodd;stroke:none"
         id="path1644" />
      <path
         d="M 827,1082.37 V 826.273 h 83.973 v 256.107 c -10.243,0 -84.215,-0.01 -83.973,-0.01 z m -5.238,0 V 826.273 h -83.977 v 256.107 c 10.242,0 84.215,-0.01 83.977,-0.01 z m 1.832,-257.671 v -85.797 c -47.071,0.422 -85.375,38.723 -85.797,85.797 z m 0,-87.367 v -85.809 c -95.199,0.426 -172.75,77.977 -173.176,173.176 h 85.809 c 0.421,-47.937 39.433,-86.945 87.367,-87.367 z m 0,-87.383 V 568.605 C 682.727,569.027 567.926,683.832 567.496,824.699 h 81.352 c 0.425,-96.066 78.679,-174.32 174.746,-174.75 z M 648.836,826.273 V 1082.38 H 567.488 V 826.273 Z m 87.379,0 H 650.41 v 256.107 h 85.805 z m -173.973,-0.789 v -0.785 h 0.008 C 562.68,680.676 680.258,563.348 824.379,563.344 968.5,563.348 1086.08,680.676 1086.51,824.699 h 0.01 V 1087.63 H 562.242 Z m 262.922,-0.785 v -85.797 c 47.074,0.422 85.375,38.723 85.797,85.797 z m 0,-87.367 v -85.809 c 95.199,0.426 172.75,77.977 173.176,173.176 h -85.805 c -0.422,-47.937 -39.433,-86.945 -87.371,-87.367 z m 0,-87.383 v -81.344 c 140.867,0.422 255.666,115.227 256.096,256.094 h -81.346 c -0.426,-96.066 -78.684,-174.32 -174.75,-174.75 z m 174.758,176.324 v 256.107 h 81.348 V 826.273 Z m -87.375,0 h 85.805 V 1082.38 H 912.547 V 826.273"
         style="fill:#918f90;fill-opacity:1;fill-rule:evenodd;stroke:none"
         id="path1646" />
    </g>
  </g>
</svg>
